<svg width="373" height="54" viewBox="0 0 373 54" fill="none" xmlns="http://www.w3.org/2000/svg">
<path fill-rule="evenodd" clip-rule="evenodd" d="M11.4981 6.36013C11.2626 6.56989 11.4163 6.70833 12.565 7.32111C14.5148 8.36136 15.7181 9.8837 16.1461 11.8513C16.3896 12.971 16.1696 14.5312 15.6364 15.4666L15.2986 16.0593L16.055 16.8117C17.0712 17.8225 17.3728 18.242 17.7817 19.2141C18.2188 20.2531 18.2903 21.9787 17.9416 23.0721C17.3889 24.8059 15.7644 26.4435 13.757 27.2907C12.3266 27.8944 11.0026 28.0289 5.55925 28.1239C2.0145 28.1858 0.463416 28.2621 0.38269 28.3786C0.22841 28.6012 28.8363 52.3398 29.0897 52.1994C29.2255 52.1242 29.2385 49.7724 29.1355 43.8737L28.992 35.6529L25.677 35.7108C22.8119 35.7608 22.3474 35.7373 22.2542 35.538C22.1949 35.4111 22.131 34.4281 22.1123 33.3535C22.0866 31.8832 22.1351 31.3575 22.3083 31.2293C22.4747 31.1062 25.1116 31.0246 31.8358 30.9347L41.1333 30.8105L41.173 33.0883L41.2128 35.3661L37.8808 35.4978L34.5488 35.6294L34.6963 44.0793L34.8438 52.5293L42.584 52.4324C49.2146 52.3494 50.3376 52.3048 50.4157 52.1209C50.4951 51.9346 49.5964 49.2634 47.7818 44.2919C45.1799 37.163 43.0867 31.1026 43.1639 30.9212C43.2417 30.7381 43.7139 30.6919 45.899 30.6538L48.5399 30.6077L48.8975 31.5202C49.094 32.0222 49.5473 33.2545 49.9046 34.2589C52.808 42.4204 53.0134 42.9526 53.2754 42.9918C53.4787 43.0224 53.6466 42.7282 53.9537 41.804C54.3895 40.4918 56.1943 34.8369 57.0348 32.1499L57.5433 30.5241L60.0923 30.4061C61.565 30.3379 62.6641 30.2255 62.6952 30.1398C62.7251 30.0583 57.2469 25.426 50.5214 19.8457C41.2527 12.1551 38.2463 9.74184 38.0985 9.87349C37.9505 10.0053 37.9569 10.2176 38.1246 10.7512C38.4939 11.9258 38.4291 13.4047 37.9516 14.6932L37.5271 15.8392L38.3253 16.5476C38.7644 16.9371 39.3735 17.6963 39.6789 18.2346C40.722 20.0726 40.5645 22.528 39.2879 24.3316C38.2052 25.8614 36.0218 27.1255 33.8627 27.4725C33.1213 27.5917 30.7788 27.678 27.4 27.7105L22.1002 27.7617L21.8262 16.962L21.5521 6.16229L16.5825 6.21008C13.8493 6.23647 11.5613 6.3039 11.4981 6.36013ZM5.04403 11.2737C4.99853 11.3804 4.9965 12.224 5.0393 13.148L5.11736 14.8282L7.12456 14.8346C9.39868 14.8418 9.94334 14.6878 10.4939 13.8819C11.1528 12.9178 10.6664 11.6103 9.50175 11.2148C8.70448 10.944 5.16443 10.9908 5.04403 11.2737ZM27.2711 10.8738C27.2228 10.9872 27.2185 11.8361 27.2613 12.7601L27.3393 14.4403L29.3622 14.4464C31.1377 14.4519 31.4519 14.4157 31.9325 14.1494C32.6492 13.7524 32.9643 13.199 32.9296 12.3974C32.9061 11.854 32.7968 11.6598 32.2654 11.2186L31.6293 10.6904L29.4941 10.6789C27.7884 10.6698 27.3412 10.7089 27.2711 10.8738ZM5.19281 19.7971C5.14731 19.9038 5.14528 20.7474 5.18808 21.6714L5.26614 23.3516L8.18441 23.3408C10.9792 23.3303 11.1274 23.3153 11.6835 22.9838C12.003 22.7933 12.4045 22.3814 12.5756 22.0684C12.8424 21.581 12.8568 21.4176 12.6773 20.9296C12.4513 20.316 11.9392 19.8319 11.303 19.6306C11.0841 19.5613 9.63828 19.5267 8.09027 19.5538C5.92602 19.5915 5.25638 19.6478 5.19281 19.7971ZM27.4074 21.0817L27.4881 22.9637L30.4064 22.9529C33.2089 22.9425 33.3477 22.9281 33.903 22.5934C34.6269 22.157 34.8981 21.6861 34.8873 20.8846C34.8805 20.3744 34.7684 20.1577 34.2846 19.7191L33.6902 19.1804L30.5084 19.1901L27.3265 19.1998L27.4074 21.0817Z" fill="white"/>
<path d="M318.83 16.2827L318.777 13.2323L318.724 10.1818L330.666 9.97338L342.608 9.76493L342.661 12.8154L342.715 15.8658L338.437 15.9405L334.159 16.0151L334.353 27.1492L334.548 38.2833L331.161 38.3425L327.775 38.4016L327.58 27.2675L327.386 16.1334L323.108 16.208L318.83 16.2827Z" fill="white"/>
<path d="M354.972 35.4857C352.674 29.2419 346.322 11.5874 345.998 10.5449L345.739 9.71028L349.328 9.64764L352.916 9.58501L353.657 11.6318C354.064 12.7573 355.432 16.5421 356.696 20.0423C358.914 26.1811 359.18 26.8145 359.414 26.5339C359.474 26.4627 360.389 23.6434 361.448 20.2684C362.507 16.8935 363.721 13.0962 364.147 11.8301L364.92 9.52805L368.601 9.37652C371.836 9.24316 372.257 9.28372 372.074 9.71074C371.96 9.9782 370.865 13.3319 369.641 17.1638C366.066 28.3588 364.421 33.5016 363.702 35.7252L363.029 37.8072L359.419 37.7833L355.809 37.7597L354.972 35.4857Z" fill="white"/>
<path d="M115.099 24.7906C115.536 24.4272 116.449 23.912 117.13 23.646C117.81 23.3799 119.18 23.1427 120.175 23.1187C121.982 23.0752 125.155 23.75 125.537 24.259C125.648 24.4075 124.779 25.6469 123.606 27.013C121.765 29.1561 121.38 29.4564 120.796 29.2011C120.423 29.0385 119.464 28.9168 118.664 28.9307C117.506 28.9509 116.942 29.1732 115.896 30.0226L114.583 31.0894L114.776 42.1408L107.111 42.2746L106.949 32.9601L106.786 23.6456L110.529 23.5803L114.272 23.5149L114.289 24.4831L114.306 25.4516L115.099 24.7906Z" fill="white"/>
<path d="M272.921 21.6633C273.464 21.319 274.283 20.9016 274.742 20.7353C275.201 20.5689 276.565 20.4069 277.773 20.3751C282.032 20.2632 286.404 22.9908 287.687 26.5605C288.023 27.4957 288.22 29.764 288.285 33.4458L288.38 38.9366L284.728 39.0873L281.076 39.2381L280.99 34.3165C280.893 28.804 280.549 27.7192 278.567 26.6968C277.177 25.9793 274.427 26.1518 273.321 27.0258C271.877 28.1671 271.631 29.3154 271.721 34.488L271.807 39.3785L268.242 39.4407L264.677 39.5029L264.514 30.1991L264.352 20.8953L267.917 20.833L271.482 20.7708L271.495 21.5334C271.511 22.4544 271.651 22.4672 272.921 21.6633Z" fill="white"/>
<path fill-rule="evenodd" clip-rule="evenodd" d="M79.3061 42.7877L79.0576 28.551L78.8091 14.3143L85.8515 14.2955C92.7323 14.2767 92.9409 14.295 94.9493 15.0981C98.6031 16.5588 100.659 19.3168 100.7 22.8144C100.712 23.7876 100.453 25.0408 100.095 25.7458L99.4704 26.9772L100.87 28.2994C101.723 29.1059 102.502 30.2717 102.868 31.2893C104.299 35.2714 102.222 39.5002 97.899 41.4062C95.8886 42.2926 95.8399 42.298 87.5926 42.5424L79.3061 42.7877ZM92.9048 21.1539C93.8292 21.9177 93.971 22.2188 93.7932 23.0445C93.4135 24.8066 92.5456 25.2542 89.1564 25.4342L86.1378 25.5942L86.092 22.9703L86.0462 20.346L88.9255 20.2957C91.658 20.248 91.8609 20.2918 92.9048 21.1539ZM95.4217 35.6055C96.6044 34.5574 96.5585 33.0261 95.316 32.0613C94.4618 31.3982 94.0453 31.3353 90.3105 31.3065L86.237 31.2751L86.2827 33.8942L86.3284 36.5133L90.444 36.4415C94.3386 36.3735 94.6063 36.3285 95.4217 35.6055Z" fill="white"/>
<path fill-rule="evenodd" clip-rule="evenodd" d="M133.648 23.1761C128.27 24.7834 124.93 29.8933 126.222 34.5354C126.892 36.944 127.732 38.1758 129.785 39.7606C136.99 45.3241 148.467 41.1689 148.937 32.8268C149.326 25.9141 141.344 20.8756 133.648 23.1761ZM139.769 35.7486C142.711 34.3849 142.668 30.2791 139.698 29.0265C136.532 27.6909 132.92 29.5457 132.972 32.4812C133.024 35.4807 136.619 37.2088 139.769 35.7486Z" fill="white"/>
<path fill-rule="evenodd" clip-rule="evenodd" d="M160.306 22.4227C156.913 23.0687 153.717 25.5821 152.631 28.4571C151.722 30.8668 151.911 34.2078 153.076 36.296C154.802 39.3917 157.89 41.2363 161.81 41.5136C163.93 41.6636 165.639 41.2457 167.499 40.1218L168.751 39.3648L168.767 40.2708L168.783 41.1768L172.526 41.1114L176.269 41.0461L176.106 31.7423L175.944 22.4384L172.201 22.5038L168.458 22.5691L168.471 23.3317C168.485 24.1047 168.003 24.3593 167.585 23.8006C167.188 23.2714 164.769 22.408 163.282 22.2652C162.496 22.1898 161.157 22.2605 160.306 22.4227ZM168.204 30.6234C167.892 29.9532 167.147 29.1735 166.451 28.788C163.955 27.4066 160.906 28.3139 159.871 30.7462C159.308 32.0709 159.313 32.1739 160.025 33.494C161.766 36.7216 166.946 36.4414 168.259 33.0488C168.684 31.9512 168.677 31.6379 168.204 30.6234Z" fill="white"/>
<path fill-rule="evenodd" clip-rule="evenodd" d="M195.839 18.1717C195.93 23.4209 195.903 23.6859 195.303 23.2527C191.541 20.531 184.62 21.7408 181.562 25.6545C180.145 27.4667 179.657 28.9588 179.682 31.3955C179.716 34.7465 180.522 36.4891 182.971 38.5124C184.56 39.8246 185.5 40.3345 186.965 40.6797C190.532 41.5203 193.499 41.0325 195.583 39.2626L196.549 38.442L196.569 39.5667L196.588 40.6914L200.153 40.6292L203.718 40.567L203.473 26.535L203.228 12.503L199.485 12.5683L195.742 12.6336L195.839 18.1717ZM196.069 31.3624C196.047 30.1276 195.867 29.803 194.64 28.7891C193.404 27.7683 193.032 27.6326 191.547 27.6586C190.061 27.6845 189.695 27.8331 188.495 28.8964C187.304 29.9525 187.135 30.2831 187.157 31.518C187.178 32.7015 187.383 33.1126 188.422 34.0493C189.574 35.0877 189.805 35.1648 191.677 35.1321C193.55 35.0994 193.778 35.0143 194.893 33.9363C195.899 32.964 196.09 32.546 196.069 31.3624Z" fill="white"/>
<path fill-rule="evenodd" clip-rule="evenodd" d="M208.464 26.4479L208.709 40.4799L212.096 40.4208L215.482 40.3616L215.463 39.294C215.442 38.0641 215.765 37.9535 216.738 38.8571C218.606 40.5927 222.268 40.9963 225.669 39.8418C228.252 38.9649 230.133 37.4421 231.34 35.2518C232.186 33.7153 232.294 33.1629 232.248 30.6097C232.202 28.0614 232.079 27.5299 231.223 26.2032C230.688 25.3734 229.706 24.2362 229.041 23.676C225.628 20.8007 219.675 20.4237 216.514 22.8825C215.931 23.3363 215.894 23.0724 215.802 17.8232L215.705 12.2852L211.962 12.3505L208.219 12.4158L208.464 26.4479ZM224.213 29.0104C223.821 28.4799 223.016 27.8416 222.425 27.5922C220.969 26.9784 219.212 27.0567 217.961 27.7913C216.595 28.5938 216.032 29.5563 216.058 31.0449C216.084 32.5335 216.68 33.4758 218.073 34.2301C221.915 36.3091 226.64 32.2925 224.213 29.0104Z" fill="white"/>
<path fill-rule="evenodd" clip-rule="evenodd" d="M244.013 20.9153C238.117 22.0401 234.367 27.255 235.673 32.5132C236.285 34.9763 237.117 36.2229 239.253 37.8715C242.743 40.5669 247.6 40.8739 251.022 38.6156L252.167 37.8594L252.184 38.79L252.2 39.7207L255.943 39.6554L259.686 39.5901L259.524 30.2862L259.361 20.9824L255.618 21.0477L251.875 21.1131L251.892 22.0813L251.909 23.0498L251.096 22.436C249.27 21.0584 246.444 20.4514 244.013 20.9153ZM252.036 30.3858C252.018 29.2571 250.708 27.548 249.472 27.0377C248.333 26.5685 246.319 26.6143 245.273 27.1336C242.42 28.5495 242.458 32.4564 245.336 33.8489C248.171 35.2201 252.081 33.199 252.036 30.3858Z" fill="white"/>
<path fill-rule="evenodd" clip-rule="evenodd" d="M307.775 16.2078L307.871 21.7358L307.06 21.2465C305.384 20.2352 303.707 19.8095 301.574 19.8547C297.635 19.9384 294.116 21.9945 292.359 25.2395C291.564 26.7082 291.419 27.3934 291.443 29.582C291.469 31.9198 291.593 32.3836 292.682 34.2027C293.379 35.3669 294.46 36.6109 295.229 37.1342C296.969 38.3168 299.925 39.1937 302.037 39.1529C304.025 39.1148 307.08 37.9334 307.91 36.8821C308.475 36.1671 308.48 36.1716 308.502 37.4494L308.524 38.7376L311.911 38.6785L315.298 38.6194L315.053 24.5873L314.808 10.5553L311.243 10.6176L307.678 10.6798L307.775 16.2078ZM308.006 29.4604C307.987 28.4043 306.882 26.8525 305.743 26.2835C304.24 25.5322 302.381 25.5555 300.932 26.3443C299.505 27.1207 298.948 28.0492 298.975 29.6055C299.027 32.6026 302.806 34.3324 305.773 32.7177C306.85 32.1316 308.023 30.4213 308.006 29.4604Z" fill="white"/>
</svg>
