<svg width="256" height="46" viewBox="0 0 256 46" fill="none" xmlns="http://www.w3.org/2000/svg">
<path fill-rule="evenodd" clip-rule="evenodd" d="M0.0949664 4.87247C0.00664282 5.08103 0.0992552 11.6861 0.301146 19.5502C0.630721 32.3798 0.727954 33.9988 1.24924 35.313C3.23493 40.319 7.5313 43.8526 13.2312 45.1676C15.6497 45.7255 19.8936 45.6514 22.2912 45.0094C28.4529 43.3595 32.8607 39.0232 34.1626 33.3307C34.2884 32.7807 34.5178 32.5871 35.0542 32.5777C36.2736 32.5564 39.3399 31.4646 41.0628 30.4381C45.3287 27.8969 48.0744 23.8514 48.5323 19.4334C49.2362 12.6433 43.5671 5.87998 35.8325 4.28246C33.2064 3.73998 0.345025 4.28247 0.0949664 4.87247ZM67.7077 23.0247L67.9533 37.0983L71.5252 37.036L75.097 36.9736L75.0151 32.2824L74.9332 27.5912L77.558 27.5454C83.7218 27.4378 87.4521 25.7034 89.6409 21.928C90.3916 20.6329 90.4751 20.2024 90.4409 17.8011C90.4083 15.4854 90.2959 14.9411 89.6174 13.8045C88.0822 11.2326 85.1658 9.547 81.3091 9.00239C80.2928 8.85898 76.7612 8.78869 73.4614 8.84629L67.462 8.95101L67.7077 23.0247ZM114.607 22.1972L114.853 36.2797L118.417 36.2175L121.981 36.1553L121.995 32.0657L122.009 27.9762L125.187 32.0041L128.364 36.0318L136.942 35.8821C136.942 35.8821 135.171 33.243 133.192 30.8191C131.213 28.395 129.592 26.3003 129.59 26.1639C129.587 26.0274 130.583 24.7033 131.803 23.2212C133.022 21.739 134.466 19.9456 135.01 19.2354L136 17.9444L131.665 18.0201L127.33 18.0958L126.038 19.9283C125.328 20.9361 124.121 22.6165 123.357 23.6622L121.967 25.5635L121.66 16.854L121.352 8.14442L117.857 8.12955L114.361 8.11468L114.607 22.1972ZM188.372 11.9405L188.461 17.0389L187.603 16.8477C187.132 16.7425 185.698 16.6887 184.417 16.7279C181.286 16.8239 178.89 17.676 176.814 19.4319C174.651 21.2615 173.887 22.9159 173.77 26.0285C173.602 30.4715 175.122 33.0104 178.899 34.5971C180.647 35.3313 181.316 35.4666 183.094 35.4444C185.074 35.42 185.891 35.1998 188.524 33.9796C188.651 33.9205 188.759 34.1238 188.765 34.431C188.774 34.9631 188.936 34.9866 192.191 34.9298L195.608 34.8701L195.362 20.7965L195.116 6.72279L191.7 6.78243L188.283 6.84206L188.372 11.9405ZM34.7441 12.3771C36.63 13.2111 37.6777 14.141 38.5898 15.7901C39.2606 17.003 39.3871 17.5435 39.2702 18.6919C39.1044 20.3187 38.3039 21.8762 37.064 22.9846C35.3879 24.4831 34.692 24.6634 29.6809 24.8951L25.0243 25.1105L24.9369 29.0002C24.8427 33.1971 24.5457 34.1762 22.9301 35.6205C20.678 37.6342 16.9743 38.1901 14.0379 36.9556C12.1603 36.1662 10.6326 34.4204 10.1111 32.4679C9.57256 30.4515 9.31023 12.8597 9.81191 12.4101C10.108 12.1448 12.8219 12.04 21.843 11.9453C33.0711 11.8276 33.5368 11.8434 34.7441 12.3771ZM79.7903 14.8872C81.4369 15.1872 82.4336 16.0413 82.6873 17.3696C83.2221 20.1678 80.8014 21.8348 76.6821 21.505L74.8244 21.3564L74.7692 18.1919L74.7139 15.0276L75.5661 14.9009C77.1162 14.6708 78.5754 14.666 79.7903 14.8872ZM97.9197 18.4311C91.9811 19.8696 88.7453 24.3018 89.8771 29.4466C90.5895 32.6842 92.6766 34.9562 96.1748 36.3014C97.7607 36.9111 98.2821 36.9704 101.504 36.9058C104.69 36.8422 105.26 36.7561 106.772 36.1092C109.165 35.0865 110.9 33.6342 111.881 31.8331C112.644 30.4329 112.72 30.0095 112.677 27.4429C112.632 24.7241 112.582 24.5247 111.511 22.7827C110.226 20.6932 108.689 19.575 105.966 18.7478C103.748 18.0743 100.001 17.9268 97.9197 18.4311ZM144.198 17.626C139.027 18.8832 136.196 22.5214 136.285 27.0566C136.431 34.4547 145.668 37.4379 152.965 35.3838C154.611 34.8126 155.866 34.3102 155.866 34.3102C155.866 34.3102 155.108 32.9094 154.668 31.9583C153.958 30.4266 153.773 30.0563 153.773 30.0563C153.773 30.0563 150.383 31.079 148.52 31.1217C146.067 31.1781 144.425 30.6333 143.29 28.8114L150.272 28.6895L157.255 28.5676L157.447 27.6019C157.77 25.9785 157.34 23.1675 156.579 21.9306C154.319 18.2588 149.083 16.4383 144.198 17.626ZM206.244 16.4472C200.529 17.5997 197.153 21.7236 197.739 26.8356C198.13 30.2442 200.458 32.954 204.244 34.407C205.827 35.0143 206.39 35.0817 209.436 35.0296C212.627 34.9753 212.988 34.9132 214.906 34.0895C218.974 32.3425 220.799 29.686 220.749 25.5823C220.71 22.3898 219.987 20.7954 217.724 18.9106C216.471 17.8661 215.426 17.2786 214.118 16.8812C212.041 16.25 208.256 16.0415 206.244 16.4472ZM167.584 17.986C166.656 18.5691 166.757 17.4821 166.757 17.4821C166.757 17.4821 166.55 17.4112 163.303 17.4679L159.886 17.5275L160.043 26.5078L160.2 35.4882L163.616 35.4285L167.033 35.3689L166.934 29.7217C166.878 26.4987 166.964 23.8592 167.135 23.5722C167.633 22.7381 169.284 22.3851 170.741 22.8013L171.99 23.1579L173.103 20.4261C174.145 17.8693 174.181 17.6732 173.667 17.3615C172.095 16.4065 169.058 17.0602 167.584 17.986ZM232.803 16.3682C232.168 16.5761 231.288 16.9577 230.849 17.2164C230.441 17.4568 229.371 18.0107 229.371 18.0107L229.341 16.2975C229.341 16.2975 223.944 16.4205 222.626 16.4147L222.783 25.4127L222.94 34.4107L226.372 34.2749L229.804 34.1391L229.728 28.7075C229.659 23.753 229.704 23.2169 230.243 22.6045C230.98 21.7665 231.777 21.5887 233.316 21.5619C234.334 21.5441 236.276 22.043 236.295 23.1188C236.314 24.1945 236.488 34.1566 236.488 34.1566L239.423 34.1053L243.099 34.0412L242.929 24.3437C242.929 24.3437 242.788 22.6296 243.553 21.916C244.186 21.3263 247.075 21.1776 247.923 21.8397C248.772 22.5019 248.584 24.245 248.584 24.245L248.753 33.9425L252.153 33.8831L255.552 33.8238L255.436 27.1647C255.308 19.8177 255.061 18.5469 253.493 17.1759C252.244 16.0833 250.819 15.6716 248.441 15.7163C246.197 15.7581 243.794 16.57 242.72 17.649L242.142 18.2299L240.95 17.3337C240.295 16.8405 239.222 16.3186 238.567 16.1734C236.95 15.8158 234.208 15.9084 232.803 16.3682ZM150.727 24.6593L143.428 24.7867C143.428 24.7867 144.007 22.3774 147.076 22.3239C150.012 22.2726 150.727 24.6593 150.727 24.6593ZM103.363 24.1346C105.959 25.4429 106.297 28.7551 104.019 30.5451C101.971 32.1541 98.8893 31.6021 97.6003 29.3952C95.6089 25.9855 99.6744 22.2744 103.363 24.1346ZM187.651 22.5515L188.585 22.9489L188.547 25.8207L188.509 28.6925L187.122 29.3366C183.085 31.2126 179.504 27.6086 181.717 23.8966C182.615 22.3903 185.654 21.7015 187.651 22.5515ZM211.396 22.2639C213.938 23.5632 214.167 27.25 211.81 28.9111C210.724 29.6766 208.488 29.7518 207.132 29.0683C205.269 28.1288 204.518 25.5465 205.589 23.7593C206.706 21.8947 209.345 21.215 211.396 22.2639ZM41.7701 35.9301C39.518 36.5942 37.8561 38.5829 37.8908 40.5727C37.9444 43.6443 41.5411 45.894 44.9713 45.0013C48.6404 44.0467 50.1246 40.4367 47.9648 37.7197C46.7304 36.1666 43.8198 35.3258 41.7701 35.9301Z" fill="white"/>
</svg>
