<svg width="275" height="39" viewBox="0 0 275 39" fill="none" xmlns="http://www.w3.org/2000/svg">
<g clip-path="url(#clip0_4703_103)">
<path d="M21.0718 4.76914C19.8188 5.44495 19.5925 5.99074 19.5485 8.38306L19.5218 10.5322L17.9006 10.9902C15.5758 11.666 13.1346 13.0352 11.32 14.6924C9.48426 16.3686 8.3775 18.0508 7.60033 20.1944L7.02834 21.8112L4.88536 21.8486C2.31379 21.8935 1.29135 22.2663 0.666716 23.3235C0.124539 24.1925 0.299326 25.6094 1.04 26.2878C1.97615 27.1122 2.62231 27.2878 5.00101 27.2462L7.20828 27.2077L7.59182 28.3034C9.14937 32.7977 13.4138 36.404 18.71 37.7129C20.3679 38.1324 24.035 38.2178 25.916 37.9047C32.1994 36.8235 37.1204 32.6084 38.5883 27.0523C39.2908 24.3122 38.6625 20.2501 37.1178 17.7173C35.0869 14.3523 30.9861 11.5278 26.8339 10.6661L25.7581 10.442L25.7223 8.3874C25.6926 6.68767 25.6205 6.24051 25.2253 5.70557C24.3028 4.43248 22.4516 3.99769 21.0718 4.76914ZM26.243 16.1135C30.5745 17.4205 33.5003 21.7041 32.6664 25.5115C31.7557 29.8247 27.9676 32.6374 23.0388 32.7234C18.7314 32.7986 15.2876 30.7661 13.6824 27.2255C13.0124 25.6864 12.9677 23.1275 13.5832 21.5473C15.4749 16.9367 21.0276 14.523 26.243 16.1135Z" fill="white"/>
<path d="M20.6986 19.0128C19.0996 19.5078 17.2431 21.2218 16.7958 22.6122C16.0848 24.8667 16.608 26.5952 18.5011 28.2064C19.5454 29.085 20.0646 29.3562 21.0975 29.581C24.1324 30.2941 27.1978 29.0635 28.6331 26.5535C29.0908 25.7607 29.1687 25.311 29.1482 24.1342C29.1192 22.4719 28.497 21.2122 27.1929 20.1887C25.4752 18.7987 22.852 18.34 20.6986 19.0128ZM23.8783 23.1052C24.7034 23.7073 24.7207 24.6973 23.9386 25.3275C23.621 25.5573 23.1535 25.7896 22.8963 25.7941C22.2963 25.8046 21.1212 24.7975 21.112 24.2745C21.1029 23.7515 22.2422 22.704 22.8422 22.6935C23.0994 22.689 23.5741 22.8676 23.8783 23.1052ZM218.524 1.21047C217.438 1.65915 216.917 2.49035 216.939 3.7418C216.956 4.71307 217.023 4.88005 217.719 5.44711C219.09 6.61895 220.996 6.51095 222.28 5.19933C223.48 3.94524 223.019 2.10357 221.333 1.29222C220.361 0.860774 219.503 0.83838 218.524 1.21047ZM72.2181 8.41656L72.2771 11.7973L68.0768 11.8707L68.1577 16.5029L72.3365 16.4299L72.5312 23.9001C72.7155 30.7726 72.7701 31.4443 73.1666 32.054C73.8501 33.1444 74.9142 33.9292 76.1857 34.3181C77.5868 34.7607 81.4698 34.9358 83.8021 34.6896L85.2781 34.5144L85.1895 29.4339L83.1975 29.5247C81.3341 29.6133 81.1837 29.5972 80.6398 29.1396L80.0742 28.6637L79.8583 16.2986L84.9801 16.2092L84.876 13.9316L84.7937 11.6723L82.3068 11.6596L79.7986 11.6474L79.6977 8.32337L79.5754 4.99976L75.8885 5.00806L72.159 5.03579L72.2181 8.41656ZM139.708 18.7292L139.967 33.5784L147.489 33.4471L146.97 3.72995L139.449 3.86125L139.708 18.7292ZM6.36109 9.37926C5.23412 9.9034 4.73252 10.6408 4.75078 11.6868C4.77197 12.9009 5.2779 13.6394 6.33643 14.1067C7.8265 14.7347 9.04376 14.4705 10.1804 13.2736C11.3168 12.058 10.7029 10.0508 8.97585 9.35231C8.04753 8.97615 7.23319 8.99036 6.36109 9.37926ZM53.3049 11.7361C47.5085 12.4726 44.302 15.4432 44.803 19.5823C44.9557 20.9623 45.5957 22.0161 46.8121 22.9291C48.1811 23.9889 49.5825 24.4502 54.4221 25.3933C59.2196 26.3746 60.4057 26.7836 60.935 27.6338C62.1255 29.5188 59.5414 31.3015 55.9584 31.1212C53.5553 30.995 52.1035 30.1048 51.6043 28.5254L51.4215 27.8746L47.906 27.8799L44.412 27.8849L44.5598 28.9846C44.7573 30.4759 45.6607 31.8801 47.0739 33.0139C49.3998 34.8604 52.0055 35.5435 56.5704 35.4826C59.9566 35.4421 61.795 35.1485 63.7522 34.2922C67.0078 32.9088 68.661 30.6005 68.6082 27.5746C68.5772 25.8002 68.1972 24.91 67.0857 23.8644C65.4511 22.3235 63.5536 21.684 57.7048 20.6463C53.598 19.9333 52.3008 19.302 52.279 18.0505C52.2555 16.7057 53.338 16.0889 55.8881 16.0444C58.6311 15.9965 60.1225 16.6992 60.5775 18.2046L60.737 18.7437L67.7659 18.621L67.623 17.8014C67.0796 14.9149 64.426 12.7191 60.5537 11.9272C58.8542 11.5832 55.2728 11.4963 53.3049 11.7361Z" fill="white"/>
<path d="M95.7363 11.0143C93.9612 11.2508 92.1082 11.9371 90.4111 12.957C86.6773 15.1895 84.7459 18.7545 84.8245 23.256C84.9236 28.9342 88.4043 33.0773 94.2593 34.4698C96.1322 34.9229 100.59 34.8451 102.424 34.3273C105.859 33.3705 108.038 31.7443 109.535 29.0651C110.885 26.6126 110.973 26.7232 107.201 26.789L104.008 26.8447L103.696 27.3733C103.238 28.1661 102.287 28.93 101.159 29.3795C100.01 29.8666 97.4393 29.9862 96.0399 29.637C94.1456 29.1842 92.7019 27.5279 92.3657 25.4598L92.2208 24.5282L101.585 24.3273L110.927 24.1082L110.854 22.3719C110.484 14.6992 103.99 9.80526 95.7363 11.0143ZM100.414 16.1829C101.602 16.704 102.763 18.1411 103.109 19.5176L103.269 20.1314L92.1903 20.3248L92.3902 19.4992C92.8103 17.7729 94.1814 16.4972 96.1662 15.9954C97.1049 15.7362 99.6797 15.8781 100.414 16.1829ZM123.273 10.4963C117.886 11.3377 113.956 14.6573 112.605 19.5014C112.18 20.9661 112.26 24.3278 112.739 25.945C113.903 29.9978 117.126 32.9123 121.711 33.9907C123.605 34.4434 128.084 34.3839 129.876 33.8668C132.82 33.0494 134.856 31.7807 136.195 29.9076C136.802 29.0749 138.067 26.6613 138.062 26.3438C138.061 26.3064 136.582 26.2949 134.76 26.3266C131.653 26.3809 131.439 26.4033 131.317 26.7791C131.113 27.3806 129.166 28.8345 128.185 29.1132C127.716 29.2522 126.582 29.3654 125.682 29.3811C122.296 29.4402 120.385 28.0349 119.862 25.092L119.694 24.086L138.445 23.7587L138.423 22.4512C138.305 16.9228 134.619 12.0919 129.452 10.7995C127.859 10.3976 124.877 10.2628 123.273 10.4963ZM127.844 15.7041C129.075 16.2431 130.082 17.44 130.58 18.926L130.807 19.6507L119.792 19.843L119.784 19.3947C119.78 19.1519 120.025 18.4563 120.379 17.8709C121.002 16.739 122.23 15.8208 123.51 15.4995C124.535 15.2574 127.088 15.3996 127.844 15.7041ZM157.411 9.93778C153.433 10.4743 150.526 12.1319 149.43 14.4491C148.913 15.5605 149.017 17.8381 149.66 19.0601C150.304 20.3007 151.738 21.434 153.573 22.1494C154.328 22.4538 156.718 23.01 158.847 23.4026C160.976 23.7951 163.127 24.2434 163.666 24.4021C165.821 25.0745 166.692 27.0772 165.363 28.2961C164.54 29.0205 162.769 29.4998 160.669 29.5365C157.604 29.59 155.659 28.671 155.028 26.9071L154.735 26.0714L151.669 26.0689L148.604 26.0663L148.772 27.091C149.298 30.2394 152.171 32.6929 156.322 33.4986C157.914 33.8258 162.928 33.7383 164.508 33.3557C167.817 32.588 170.424 30.8796 171.46 28.8063C172.185 27.355 172.165 25.0198 171.391 23.6507C170.02 21.2084 167.903 20.2924 160.808 19.0897C157.819 18.5813 156.375 18.1208 155.677 17.4416C155.066 16.8171 154.945 15.9971 155.34 15.2989C155.757 14.619 157.398 14.0859 159.39 14.0324C162.262 13.9636 163.903 14.6449 164.444 16.1863L164.693 16.9106L171.057 16.7995L170.895 16.0737C170.451 13.9888 168.635 11.8905 166.366 10.8651C164.292 9.91109 160.491 9.52902 157.411 9.93778ZM183.127 9.47023C178.53 10.1857 174.791 13.3338 173.325 17.7502C172.693 19.6109 172.718 23.5154 173.352 25.4475C174.733 29.646 178.038 32.3535 182.768 33.1491C185.8 33.6567 189.435 33.1635 192.199 31.8821C193.412 31.3191 195.566 29.4692 196.255 28.4109C196.672 27.787 197.62 25.5844 197.615 25.2856C197.615 25.2669 196.328 25.252 194.764 25.2793L191.914 25.329L191.436 26.1968C190.813 27.3474 189.29 28.5511 188.052 28.8343C186.792 29.1179 184.456 29.1586 183.487 28.8953C181.678 28.4037 179.981 26.9947 179.441 25.5094C179.306 25.1381 179.121 24.3939 179.004 23.8354L178.815 22.8298L197.781 22.4988L197.9 21.9922C198.081 21.2791 197.801 18.7803 197.349 17.4242C196.17 13.7641 192.837 10.6833 189.005 9.72262C187.304 9.34125 184.816 9.21654 183.127 9.47023ZM188.138 14.1285C188.721 14.3425 189.458 14.8341 189.786 15.1834C190.527 15.9178 191.347 17.4169 191.6 18.4401L191.763 19.1659L178.841 19.3915L178.933 18.5491C179.119 16.883 180.86 14.7226 182.521 14.0957C184.331 13.4102 186.475 13.4288 188.138 14.1285ZM235.95 8.49214C230.924 9.15907 226.994 12.404 225.595 17.0246C225.008 18.9967 225.048 22.5273 225.684 24.5901C226.547 27.3403 228.189 29.3295 230.636 30.7254C232.995 32.0295 234.523 32.3765 237.802 32.338C240.824 32.3039 242 32.0965 244.062 31.145C245.828 30.3482 246.927 29.4882 248.018 28.1239C248.815 27.101 249.851 25.0651 249.842 24.5234C249.84 24.4113 248.681 24.3568 247.031 24.3856L244.203 24.435L243.578 25.5109C242.517 27.3231 240.838 28.1558 238.095 28.2037C235.566 28.2292 233.903 27.5669 232.654 26.0005C231.866 25.024 231.239 23.5402 231.222 22.569L231.212 21.9526L250.241 21.6204L250.212 19.9207C250.086 12.7482 243.5 7.50089 235.95 8.49214ZM240.038 13.0171C241.87 13.639 243.446 15.4799 243.866 17.4344L244.03 18.2536L231.151 18.4784L231.143 17.9928C231.129 17.1896 231.935 15.4753 232.755 14.6015C234.439 12.8345 237.557 12.1448 240.038 13.0171ZM260.038 8.12773C255.804 8.72479 252.874 10.3641 251.865 12.6985C251.472 13.5461 251.518 16.1424 251.94 16.9758C252.807 18.7917 254.501 20.0327 256.978 20.7368C257.711 20.9482 259.841 21.3781 261.711 21.7192C266.593 22.6055 268.04 23.2155 268.363 24.5364C268.85 26.6206 266.663 27.8358 262.631 27.738C259.414 27.6634 257.899 26.793 257.284 24.7298L257.146 24.2091L251.124 24.3142L251.293 25.3949C251.774 28.3946 254.171 30.6136 258.025 31.5739C259.317 31.9064 260.154 31.9665 262.704 31.922C266.198 31.8797 267.458 31.6522 269.799 30.6397C270.926 30.153 271.71 29.6348 272.554 28.8167C274.071 27.3328 274.542 26.0541 274.377 23.9644C274.24 22.2478 273.752 21.3408 272.425 20.2429C270.946 18.9796 269.264 18.4297 264.34 17.5441C260.383 16.8471 259.349 16.5476 258.415 15.8725C257.764 15.3981 257.653 15.1759 257.641 14.5034C257.625 13.5882 257.878 13.3035 259.154 12.7208C260.217 12.2164 263.538 12.1584 264.854 12.6213C265.954 12.9944 266.803 13.783 267.032 14.6011L267.192 15.1775L273.407 15.069L273.241 14.1377C272.741 11.3252 269.74 8.8739 265.978 8.26694C264.322 7.95953 261.578 7.91402 260.038 8.12773ZM217.187 9.38016C217.103 9.45637 217.129 14.6314 217.238 20.8886L217.436 32.2264L223.415 32.122L223.173 20.6916L222.909 9.28029L220.122 9.27288C218.579 9.26246 217.272 9.32263 217.187 9.38016ZM199.301 21.1643L199.499 32.5394L205.435 32.4358L205.397 25.3366L205.338 18.2377L205.878 17.2754C206.876 15.5203 209.048 14.6417 213.199 14.2329L214.676 14.095L214.595 9.4441L212.218 9.57901C209.455 9.73934 208.048 10.1563 206.118 11.3857L204.888 12.1545L204.845 9.67033L199.08 9.77096L199.279 21.1647L199.301 21.1643Z" fill="white"/>
</g>
<defs>
<clipPath id="clip0_4703_103">
<rect width="274" height="33.7195" fill="white" transform="translate(0 4.78198) rotate(-1)"/>
</clipPath>
</defs>
</svg>
