<svg width="1320" height="417" viewBox="0 0 1320 417" fill="none" xmlns="http://www.w3.org/2000/svg">
<g clip-path="url(#clip0_1_345)">
<rect width="1320" height="417" fill="black"/>
<path fill-rule="evenodd" clip-rule="evenodd" d="M1320 348L2.62268e-07 348L0 345L1320 345V348Z" fill="url(#paint0_radial_1_345)"/>
<path fill-rule="evenodd" clip-rule="evenodd" d="M1321 208L1 208L1 205L1321 205V208Z" fill="url(#paint1_radial_1_345)"/>
<path fill-rule="evenodd" clip-rule="evenodd" d="M1320 68L2.62268e-07 68.0001L0 65.0001L1320 65V68Z" fill="url(#paint2_radial_1_345)"/>
<path fill-rule="evenodd" clip-rule="evenodd" d="M60 417L60 1H63L63 417H60Z" fill="url(#paint3_radial_1_345)"/>
<path fill-rule="evenodd" clip-rule="evenodd" d="M510 417L510 1H513L513 417H510Z" fill="url(#paint4_radial_1_345)"/>
<path fill-rule="evenodd" clip-rule="evenodd" d="M960 417L960 1H963L963 417H960Z" fill="url(#paint5_radial_1_345)"/>
<path fill-rule="evenodd" clip-rule="evenodd" d="M210 417L210 5.52458e-08L213 0L213 417H210Z" fill="url(#paint6_radial_1_345)"/>
<path fill-rule="evenodd" clip-rule="evenodd" d="M660 417L660 5.52458e-08L663 0L663 417H660Z" fill="url(#paint7_radial_1_345)"/>
<path fill-rule="evenodd" clip-rule="evenodd" d="M1110 417V5.52458e-08L1113 0V417H1110Z" fill="url(#paint8_radial_1_345)"/>
<path fill-rule="evenodd" clip-rule="evenodd" d="M360 417L360 1H363L363 417H360Z" fill="url(#paint9_radial_1_345)"/>
<path fill-rule="evenodd" clip-rule="evenodd" d="M810 417L810 1H813L813 417H810Z" fill="url(#paint10_radial_1_345)"/>
<path fill-rule="evenodd" clip-rule="evenodd" d="M1260 417V1H1263V417H1260Z" fill="url(#paint11_radial_1_345)"/>
<path d="M258 417L386.5 247.751H449.5L494 170.118H705L763.5 65H923" stroke="#FF3F62" stroke-width="5"/>
<path d="M386.586 247.751L258 417H1007L923.444 65H763.838L705.299 170.118H494.158L449.628 247.751H386.586Z" fill="#FF3F62" fill-opacity="0.2"/>
<path d="M607 0H674.5L512 417H436L607 0Z" fill="white"/>
<circle cx="494" cy="169" r="12.5" fill="white" stroke="black" stroke-width="5"/>
<path d="M114.272 284.907L148.821 287.172L71.8644 455.414L37.5793 453.167L93.6476 330.59L60.4332 359.852L42.81 344.339L114.272 284.907ZM163.815 465.154C154.672 464.555 147.325 462.01 141.773 457.521C136.221 453.031 132.617 446.853 130.963 438.988C129.383 430.963 129.641 421.491 131.738 410.571C134.085 399.502 138.373 387.158 144.603 373.538C150.906 359.758 157.868 347.507 165.489 336.784C173.11 326.061 181.193 317.102 189.736 309.905C198.28 302.708 207.123 297.429 216.267 294.068C225.484 290.546 234.751 289.09 244.07 289.701C253.388 290.312 260.736 292.856 266.112 297.335C271.664 301.824 275.231 308.082 276.811 316.107C278.465 323.972 278.119 333.439 275.773 344.508C273.675 355.428 269.512 367.697 263.282 381.317C256.979 395.097 250.017 407.348 242.395 418.071C234.774 428.794 226.692 437.754 218.148 444.95C209.605 452.147 200.725 457.506 191.508 461.028C182.365 464.39 173.134 465.765 163.815 465.154ZM177.227 435.832C185.315 436.362 193.741 431.798 202.505 422.14C211.518 412.334 220.348 397.977 228.997 379.07C237.645 360.163 242.08 345.518 242.302 335.135C242.7 324.764 238.855 319.313 230.767 318.783C222.679 318.253 214.129 322.891 205.116 332.698C196.279 342.516 187.536 356.878 178.888 375.786C170.239 394.693 165.716 409.332 165.319 419.703C165.17 429.926 169.14 435.302 177.227 435.832ZM310.124 474.744C300.981 474.145 293.634 471.6 288.082 467.11C282.529 462.62 278.926 456.443 277.272 448.578C275.691 440.553 275.95 431.08 278.047 420.16C280.394 409.092 284.682 396.748 290.912 383.128C297.215 369.348 304.177 357.097 311.798 346.374C319.419 335.651 327.502 326.691 336.045 319.495C344.589 312.298 353.432 307.019 362.576 303.657C371.792 300.135 381.06 298.68 390.378 299.291C399.697 299.902 407.044 302.446 412.421 306.924C417.973 311.414 421.539 317.672 423.12 325.697C424.774 333.562 424.428 343.029 422.081 354.097C419.984 365.017 415.82 377.287 409.591 390.907C403.288 404.686 396.325 416.938 388.704 427.661C381.083 438.384 373.001 447.343 364.457 454.54C355.914 461.737 347.034 467.096 337.817 470.618C328.673 473.979 319.442 475.355 310.124 474.744ZM323.536 445.421C331.624 445.952 340.05 441.388 348.814 431.73C357.826 421.924 366.657 407.567 375.306 388.659C383.954 369.752 388.389 355.107 388.611 344.725C389.009 334.353 385.164 328.903 377.076 328.373C368.988 327.843 360.438 332.481 351.425 342.287C342.588 352.105 333.845 366.468 325.197 385.375C316.548 404.282 312.025 418.922 311.628 429.293C311.479 439.515 315.449 444.891 323.536 445.421ZM413.119 461.443C415.611 455.995 419.473 451.709 424.704 448.587C429.935 445.464 435.628 444.104 441.782 444.507C447.935 444.911 452.089 446.916 454.242 450.523C456.571 454.141 456.489 458.674 453.997 464.122C451.432 469.73 447.446 474.09 442.039 477.201C436.881 480.164 431.225 481.443 425.071 481.04C418.917 480.637 414.727 478.712 412.501 475.265C410.348 471.658 410.554 467.051 413.119 461.443ZM537.066 489.618C527.924 489.019 520.576 486.475 515.024 481.985C509.472 477.495 505.869 471.318 504.215 463.453C502.634 455.427 502.892 445.955 504.99 435.035C507.336 423.966 511.624 411.622 517.854 398.003C524.157 384.223 531.119 371.971 538.741 361.248C546.362 350.526 554.444 341.566 562.988 334.369C571.531 327.173 580.375 321.893 589.518 318.532C598.735 315.01 608.002 313.555 617.321 314.165C626.639 314.776 633.987 317.321 639.363 321.799C644.915 326.289 648.482 332.546 650.063 340.571C651.717 348.437 651.371 357.903 649.024 368.972C646.927 379.892 642.763 392.162 636.533 405.781C630.23 419.561 623.268 431.812 615.647 442.535C608.026 453.258 599.943 462.218 591.4 469.415C582.856 476.611 573.976 481.97 564.759 485.492C555.616 488.854 546.385 490.229 537.066 489.618ZM550.479 460.296C558.567 460.826 566.992 456.262 575.756 446.605C584.769 436.798 593.6 422.441 602.248 403.534C610.897 384.627 615.332 369.982 615.554 359.599C615.951 349.228 612.106 343.777 604.018 343.247C595.931 342.717 587.38 347.355 578.368 357.162C569.53 366.98 560.788 381.342 552.139 400.25C543.491 419.157 538.968 433.796 538.57 444.167C538.421 454.39 542.391 459.766 550.479 460.296ZM683.375 499.208C674.233 498.609 666.885 496.064 661.333 491.574C655.781 487.085 652.178 480.907 650.524 473.042C648.943 465.017 649.201 455.544 651.299 444.624C653.645 433.556 657.933 421.212 664.163 407.592C670.466 393.812 677.428 381.561 685.049 370.838C692.671 360.115 700.753 351.155 709.296 343.959C717.84 336.762 726.683 331.483 735.827 328.121C745.044 324.6 754.311 323.144 763.63 323.755C772.948 324.366 780.296 326.91 785.672 331.388C791.224 335.878 794.791 342.136 796.372 350.161C798.026 358.026 797.679 367.493 795.333 378.562C793.235 389.481 789.072 401.751 782.842 415.371C776.539 429.151 769.577 441.402 761.956 452.125C754.334 462.848 746.252 471.807 737.709 479.004C729.165 486.201 720.285 491.56 711.068 495.082C701.925 498.443 692.694 499.819 683.375 499.208ZM696.788 469.886C704.875 470.416 713.301 465.852 722.065 456.194C731.078 446.388 739.909 432.031 748.557 413.124C757.205 394.216 761.641 379.571 761.862 369.189C762.26 358.818 758.415 353.367 750.327 352.837C742.24 352.307 733.689 356.945 724.676 366.751C715.839 376.569 707.097 390.932 698.448 409.839C689.8 428.747 685.277 443.386 684.879 453.757C684.73 463.979 688.7 469.356 696.788 469.886ZM829.684 508.798C820.541 508.198 813.194 505.654 807.642 501.164C802.09 496.674 798.487 490.497 796.832 482.632C795.252 474.606 795.51 465.134 797.607 454.214C799.954 443.145 804.242 430.801 810.472 417.182C816.775 403.402 823.737 391.15 831.358 380.428C838.979 369.705 847.062 360.745 855.605 353.548C864.149 346.352 872.992 341.073 882.136 337.711C891.353 334.189 900.62 332.734 909.939 333.345C919.257 333.955 926.605 336.5 931.981 340.978C937.533 345.468 941.1 351.725 942.68 359.751C944.334 367.616 943.988 377.083 941.642 388.151C939.544 399.071 935.381 411.341 929.151 424.96C922.848 438.74 915.886 450.992 908.264 461.714C900.643 472.437 892.561 481.397 884.017 488.594C875.474 495.79 866.594 501.15 857.377 504.671C848.234 508.033 839.003 509.408 829.684 508.798ZM843.097 479.475C851.184 480.005 859.61 475.442 868.374 465.784C877.387 455.977 886.217 441.62 894.866 422.713C903.514 403.806 907.949 389.161 908.171 378.778C908.569 368.407 904.724 362.957 896.636 362.426C888.548 361.896 879.998 366.535 870.985 376.341C862.148 386.159 853.405 400.522 844.757 419.429C836.109 438.336 831.585 452.975 831.188 463.346C831.039 473.569 835.009 478.945 843.097 479.475ZM969.464 414.482L1008.5 417.041L1025.21 380.508L1055.27 382.479L1038.56 419.011L1077.59 421.57L1065.94 447.046L1026.91 444.488L1010.2 481.021L980.133 479.05L996.843 442.517L957.811 439.959L969.464 414.482Z" fill="white"/>
<path d="M965.676 52.7586L958.196 71.9619L919.003 83.5714L908.959 106.764C911.563 104.775 914.316 103.024 917.218 101.509C920.228 99.9626 923.42 98.6893 926.795 97.6896C931.912 96.1739 935.95 95.8201 938.91 96.6281C941.979 97.4039 944.106 99.1137 945.291 101.758C946.518 104.296 946.844 107.662 946.269 111.857C945.845 115.914 944.603 120.587 942.542 125.878C937.845 137.939 931.224 148.137 922.682 156.47C914.139 164.804 904.315 170.615 893.21 173.904C888.42 175.323 884.313 175.979 880.888 175.87C877.504 175.655 874.905 174.787 873.09 173.266C871.316 171.639 870.347 169.305 870.182 166.265C870.127 163.193 870.924 159.54 872.572 155.308L875.353 148.167L896.583 141.878L894.11 148.226C892.709 151.824 892.522 154.406 893.549 155.974C894.725 157.404 896.892 157.651 900.05 156.716C904.295 155.458 908.262 152.692 911.949 148.418C915.637 144.143 918.82 138.567 921.498 131.69C924.465 124.072 925.54 118.84 924.723 115.993C924.014 113.115 921.264 112.385 916.474 113.804C913.208 114.771 910.198 116.318 907.444 118.444C904.689 120.57 902.45 123.106 900.725 126.05L881.782 131.661L908.519 69.6891L965.676 52.7586ZM981.151 148.557C975.489 150.234 970.888 150.427 967.345 149.137C963.803 147.846 961.422 145.182 960.201 141.145C959.022 137.001 958.942 131.643 959.961 125.07C961.13 118.359 963.466 110.507 966.969 101.514C970.513 92.4148 974.502 84.0261 978.938 76.3478C983.373 68.6694 988.137 61.8762 993.231 55.9683C998.325 50.0603 1003.65 45.1595 1009.21 41.2657C1014.82 37.2662 1020.5 34.4119 1026.27 32.7027C1032.04 30.9935 1036.65 30.8004 1040.08 32.1233C1043.62 33.4139 1045.98 36.1309 1047.16 40.2743C1048.38 44.3118 1048.41 49.6861 1047.24 56.397C1046.22 62.9698 1043.96 70.7529 1040.46 79.7462C1036.91 88.8452 1032.92 97.234 1028.49 104.912C1024.05 112.591 1019.29 119.384 1014.19 125.292C1009.1 131.2 1003.75 136.154 998.148 140.153C992.586 144.047 986.921 146.848 981.151 148.557ZM988.692 129.195C993.7 127.712 998.788 123.303 1003.96 115.97C1009.27 108.498 1014.36 98.5194 1019.23 86.0346C1024.09 73.5498 1026.46 64.3777 1026.33 58.5183C1026.31 52.6267 1023.8 50.4226 1018.79 51.906C1013.79 53.3894 1008.62 57.8671 1003.31 65.3389C998.097 72.7785 993.061 82.7407 988.198 95.2255C983.336 107.71 980.913 116.898 980.93 122.79C981.096 128.544 983.684 130.679 988.692 129.195ZM1071.75 121.722C1066.08 123.399 1061.48 123.592 1057.94 122.301C1054.4 121.011 1052.02 118.346 1050.8 114.309C1049.62 110.166 1049.54 104.807 1050.56 98.2346C1051.73 91.5237 1054.06 83.6716 1057.56 74.6783C1061.11 65.5793 1065.1 57.1905 1069.53 49.5122C1073.97 41.8338 1078.73 35.0407 1083.83 29.1327C1088.92 23.2247 1094.25 18.3239 1099.81 14.4302C1105.41 10.4306 1111.1 7.5763 1116.87 5.86713C1122.64 4.15796 1127.24 3.96481 1130.67 5.28771C1134.22 6.57835 1136.58 9.29535 1137.76 13.4387C1138.98 17.4763 1139 22.8505 1137.83 29.5614C1136.81 36.1342 1134.55 43.9173 1131.05 52.9106C1127.51 62.0097 1123.52 70.3984 1119.08 78.0767C1114.65 85.7551 1109.88 92.5483 1104.79 98.4562C1099.69 104.364 1094.35 109.318 1088.74 113.317C1083.18 117.211 1077.52 120.013 1071.75 121.722ZM1079.29 102.36C1084.3 100.876 1089.38 96.4678 1094.55 89.134C1099.87 81.6622 1104.96 71.6838 1109.82 59.199C1114.68 46.7143 1117.05 37.5422 1116.93 31.6828C1116.91 25.7911 1114.4 23.587 1109.39 25.0704C1104.38 26.5539 1099.22 31.0315 1093.9 38.5033C1088.69 45.9429 1083.66 55.9051 1078.79 68.3899C1073.93 80.8747 1071.51 90.0629 1071.52 95.9545C1071.69 101.708 1074.28 103.843 1079.29 102.36ZM1162.34 94.8862C1156.68 96.5631 1152.08 96.7563 1148.54 95.4656C1144.99 94.175 1142.61 91.5109 1141.39 87.4734C1140.21 83.33 1140.13 77.9719 1141.15 71.3991C1142.32 64.6882 1144.66 56.8361 1148.16 47.8428C1151.7 38.7437 1155.69 30.355 1160.13 22.6766C1164.56 14.9983 1169.33 8.20509 1174.42 2.29713C1179.52 -3.61084 1184.84 -8.51168 1190.41 -12.4054C1196.01 -16.4049 1201.69 -19.2593 1207.46 -20.9684C1213.23 -22.6776 1217.84 -22.8708 1221.27 -21.5479C1224.81 -20.2572 1227.17 -17.5402 1228.35 -13.3969C1229.57 -9.35932 1229.6 -3.9851 1228.43 2.7258C1227.41 9.29865 1225.15 17.0817 1221.65 26.075C1218.1 35.1741 1214.11 43.5628 1209.68 51.2412C1205.24 58.9195 1200.48 65.7127 1195.38 71.6207C1190.29 77.5286 1184.94 82.4824 1179.34 86.4819C1173.78 90.3756 1168.11 93.1771 1162.34 94.8862ZM1169.88 75.5242C1174.89 74.0408 1179.98 69.6322 1185.15 62.2984C1190.46 54.8266 1195.55 44.8483 1200.42 32.3635C1205.28 19.8787 1207.65 10.7066 1207.52 4.84718C1207.51 -1.04447 1204.99 -3.24857 1199.99 -1.76514C1194.98 -0.281708 1189.81 4.19592 1184.5 11.6677C1179.29 19.1073 1174.25 29.0695 1169.39 41.5543C1164.53 54.0391 1162.1 63.2273 1162.12 69.119C1162.29 74.8726 1164.87 77.0076 1169.88 75.5242ZM1252.94 68.0506C1247.28 69.7276 1242.67 69.9207 1239.13 68.6301C1235.59 67.3394 1233.21 64.6753 1231.99 60.6378C1230.81 56.4944 1230.73 51.1363 1231.75 44.5635C1232.92 37.8526 1235.25 30.0005 1238.76 21.0072C1242.3 11.9081 1246.29 3.51938 1250.72 -4.15898C1255.16 -11.8373 1259.92 -18.6305 1265.02 -24.5385C1270.11 -30.4464 1275.44 -35.3473 1281 -39.241C1286.6 -43.2405 1292.29 -46.0949 1298.06 -47.804C1303.83 -49.5132 1308.43 -49.7063 1311.87 -48.3835C1315.41 -47.0928 1317.77 -44.3758 1318.95 -40.2325C1320.17 -36.1949 1320.19 -30.8207 1319.02 -24.1098C1318.01 -17.5369 1315.74 -9.75387 1312.24 -0.760583C1308.7 8.33851 1304.71 16.7272 1300.27 24.4056C1295.84 32.0839 1291.07 38.8771 1285.98 44.7851C1280.89 50.693 1275.54 55.6468 1269.93 59.6463C1264.37 63.54 1258.71 66.3415 1252.94 68.0506ZM1260.48 48.6886C1265.49 47.2052 1270.57 42.7966 1275.74 35.4628C1281.06 27.991 1286.15 18.0127 1291.01 5.52788C1295.87 -6.95691 1298.24 -16.129 1298.12 -21.9884C1298.1 -27.8801 1295.59 -30.0842 1290.58 -28.6007C1285.57 -27.1173 1280.41 -22.6397 1275.09 -15.1678C1269.88 -7.72826 1264.85 2.23392 1259.98 14.7187C1255.12 27.2035 1252.7 36.3917 1252.72 42.2834C1252.88 48.037 1255.47 50.1721 1260.48 48.6886ZM1343.53 41.2151C1337.87 42.892 1333.27 43.0851 1329.73 41.7945C1326.18 40.5038 1323.8 37.8397 1322.58 33.8022C1321.4 29.6588 1321.32 24.3007 1322.34 17.7279C1323.51 11.017 1325.85 3.1649 1329.35 -5.82839C1332.89 -14.9275 1336.88 -23.3162 1341.32 -30.9946C1345.75 -38.6729 1350.52 -45.4661 1355.61 -51.374C1360.71 -57.282 1366.03 -62.1828 1371.6 -66.0766C1377.2 -70.0761 1382.89 -72.9304 1388.66 -74.6396C1394.43 -76.3488 1399.03 -76.5419 1402.46 -75.219C1406 -73.9284 1408.36 -71.2114 1409.54 -67.068C1410.76 -63.0305 1410.79 -57.6563 1409.62 -50.9454C1408.6 -44.3725 1406.34 -36.5894 1402.84 -27.5962C1399.29 -18.4971 1395.3 -10.1083 1390.87 -2.42999C1386.43 5.24836 1381.67 12.0415 1376.57 17.9495C1371.48 23.8575 1366.13 28.8112 1360.53 32.8107C1354.97 36.7044 1349.3 39.5059 1343.53 41.2151ZM1351.07 21.853C1356.08 20.3696 1361.17 15.961 1366.34 8.62724C1371.65 1.15541 1376.75 -8.8229 1381.61 -21.3077C1386.47 -33.7925 1388.84 -42.9646 1388.71 -48.824C1388.7 -54.7156 1386.18 -56.9197 1381.18 -55.4363C1376.17 -53.9529 1371.01 -49.4752 1365.69 -42.0034C1360.48 -34.5638 1355.44 -24.6017 1350.58 -12.1169C1345.72 0.36794 1343.29 9.55616 1343.31 15.4478C1343.48 21.2014 1346.07 23.3365 1351.07 21.853Z" fill="white"/>
<path d="M0 8.96179L0 72L185 316.5L143.5 0H100.892L132 181L0 8.96179Z" fill="#FF3F62"/>
<path d="M1391.77 486.542L1128.44 631.499L834 250.817L1322.11 359.998L1391.77 486.542Z" fill="#FF3F62"/>
<path d="M1320.5 90.0609L1155.13 137.063L1299 2.20735e-06L1248.5 0L1083.5 179L1320.5 143.5V90.0609Z" fill="#FF3F62"/>
<path d="M303.816 122.896H319.944V130H295.496V123.088C295.496 120.699 295.923 118.608 296.776 116.816C297.672 115.024 298.76 113.403 300.04 111.952C301.363 110.459 302.771 109.115 304.264 107.92C305.8 106.683 307.208 105.445 308.488 104.208C309.811 102.971 310.899 101.691 311.752 100.368C312.648 99.0027 313.096 97.488 313.096 95.824C313.096 94.3733 312.691 93.2427 311.88 92.432C311.112 91.6213 310.024 91.216 308.616 91.216C307.123 91.216 305.949 91.6427 305.096 92.496C304.243 93.3067 303.816 94.4587 303.816 95.952V98.896H295.496V95.376C295.496 93.84 295.773 92.4107 296.328 91.088C296.883 89.7653 297.693 88.6347 298.76 87.696C299.869 86.7147 301.235 85.9467 302.856 85.392C304.477 84.8373 306.376 84.56 308.552 84.56C310.387 84.56 312.093 84.816 313.672 85.328C315.251 85.84 316.616 86.5867 317.768 87.568C318.92 88.5067 319.816 89.68 320.456 91.088C321.096 92.4533 321.416 94.032 321.416 95.824C321.416 98 320.968 99.9413 320.072 101.648C319.219 103.355 318.131 104.912 316.808 106.32C315.528 107.728 314.12 109.051 312.584 110.288C311.091 111.483 309.683 112.699 308.36 113.936C307.08 115.131 305.992 116.389 305.096 117.712C304.243 118.992 303.816 120.4 303.816 121.936V122.896ZM339.564 130.96C337.345 130.96 335.34 130.427 333.548 129.36C331.756 128.293 330.241 126.757 329.004 124.752C327.767 122.704 326.807 120.251 326.124 117.392C325.484 114.491 325.164 111.227 325.164 107.6C325.164 103.931 325.484 100.645 326.124 97.744C326.764 94.8427 327.703 92.3893 328.94 90.384C330.177 88.3787 331.692 86.864 333.484 85.84C335.276 84.7733 337.303 84.24 339.564 84.24C341.825 84.24 343.831 84.7733 345.58 85.84C347.372 86.9067 348.887 88.464 350.124 90.512C351.361 92.5173 352.3 94.9707 352.94 97.872C353.623 100.731 353.964 103.973 353.964 107.6C353.964 111.269 353.644 114.555 353.004 117.456C352.364 120.357 351.425 122.811 350.188 124.816C348.951 126.821 347.436 128.357 345.644 129.424C343.852 130.448 341.825 130.96 339.564 130.96ZM339.564 123.152C341.527 123.152 343.02 121.829 344.044 119.184C345.111 116.496 345.644 112.635 345.644 107.6C345.644 102.565 345.111 98.704 344.044 96.016C343.02 93.328 341.527 91.984 339.564 91.984C337.601 91.984 336.087 93.328 335.02 96.016C333.996 98.704 333.484 102.565 333.484 107.6C333.484 112.635 333.996 116.496 335.02 119.184C336.087 121.829 337.601 123.152 339.564 123.152ZM359.517 125.776C359.517 124.325 359.965 123.152 360.861 122.256C361.757 121.36 362.952 120.912 364.445 120.912C365.938 120.912 367.133 121.36 368.029 122.256C368.968 123.152 369.437 124.325 369.437 125.776C369.437 127.269 368.968 128.464 368.029 129.36C367.133 130.213 365.938 130.64 364.445 130.64C362.952 130.64 361.757 130.213 360.861 129.36C359.965 128.464 359.517 127.269 359.517 125.776ZM388.877 130.96C386.658 130.96 384.653 130.427 382.861 129.36C381.069 128.293 379.554 126.757 378.317 124.752C377.079 122.704 376.119 120.251 375.437 117.392C374.797 114.491 374.477 111.227 374.477 107.6C374.477 103.931 374.797 100.645 375.437 97.744C376.077 94.8427 377.015 92.3893 378.253 90.384C379.49 88.3787 381.005 86.864 382.797 85.84C384.589 84.7733 386.615 84.24 388.877 84.24C391.138 84.24 393.143 84.7733 394.893 85.84C396.685 86.9067 398.199 88.464 399.437 90.512C400.674 92.5173 401.613 94.9707 402.253 97.872C402.935 100.731 403.277 103.973 403.277 107.6C403.277 111.269 402.957 114.555 402.317 117.456C401.677 120.357 400.738 122.811 399.501 124.816C398.263 126.821 396.749 128.357 394.957 129.424C393.165 130.448 391.138 130.96 388.877 130.96ZM388.877 123.152C390.839 123.152 392.333 121.829 393.357 119.184C394.423 116.496 394.957 112.635 394.957 107.6C394.957 102.565 394.423 98.704 393.357 96.016C392.333 93.328 390.839 91.984 388.877 91.984C386.914 91.984 385.399 93.328 384.333 96.016C383.309 98.704 382.797 102.565 382.797 107.6C382.797 112.635 383.309 116.496 384.333 119.184C385.399 121.829 386.914 123.152 388.877 123.152ZM421.502 130.96C419.283 130.96 417.278 130.427 415.486 129.36C413.694 128.293 412.179 126.757 410.942 124.752C409.704 122.704 408.744 120.251 408.062 117.392C407.422 114.491 407.102 111.227 407.102 107.6C407.102 103.931 407.422 100.645 408.062 97.744C408.702 94.8427 409.64 92.3893 410.878 90.384C412.115 88.3787 413.63 86.864 415.422 85.84C417.214 84.7733 419.24 84.24 421.502 84.24C423.763 84.24 425.768 84.7733 427.518 85.84C429.31 86.9067 430.824 88.464 432.062 90.512C433.299 92.5173 434.238 94.9707 434.878 97.872C435.56 100.731 435.902 103.973 435.902 107.6C435.902 111.269 435.582 114.555 434.942 117.456C434.302 120.357 433.363 122.811 432.126 124.816C430.888 126.821 429.374 128.357 427.582 129.424C425.79 130.448 423.763 130.96 421.502 130.96ZM421.502 123.152C423.464 123.152 424.958 121.829 425.982 119.184C427.048 116.496 427.582 112.635 427.582 107.6C427.582 102.565 427.048 98.704 425.982 96.016C424.958 93.328 423.464 91.984 421.502 91.984C419.539 91.984 418.024 93.328 416.958 96.016C415.934 98.704 415.422 102.565 415.422 107.6C415.422 112.635 415.934 116.496 416.958 119.184C418.024 121.829 419.539 123.152 421.502 123.152ZM454.127 130.96C451.908 130.96 449.903 130.427 448.111 129.36C446.319 128.293 444.804 126.757 443.567 124.752C442.329 122.704 441.369 120.251 440.687 117.392C440.047 114.491 439.727 111.227 439.727 107.6C439.727 103.931 440.047 100.645 440.687 97.744C441.327 94.8427 442.265 92.3893 443.503 90.384C444.74 88.3787 446.255 86.864 448.047 85.84C449.839 84.7733 451.865 84.24 454.127 84.24C456.388 84.24 458.393 84.7733 460.143 85.84C461.935 86.9067 463.449 88.464 464.687 90.512C465.924 92.5173 466.863 94.9707 467.503 97.872C468.185 100.731 468.527 103.973 468.527 107.6C468.527 111.269 468.207 114.555 467.567 117.456C466.927 120.357 465.988 122.811 464.751 124.816C463.513 126.821 461.999 128.357 460.207 129.424C458.415 130.448 456.388 130.96 454.127 130.96ZM454.127 123.152C456.089 123.152 457.583 121.829 458.607 119.184C459.673 116.496 460.207 112.635 460.207 107.6C460.207 102.565 459.673 98.704 458.607 96.016C457.583 93.328 456.089 91.984 454.127 91.984C452.164 91.984 450.649 93.328 449.583 96.016C448.559 98.704 448.047 102.565 448.047 107.6C448.047 112.635 448.559 116.496 449.583 119.184C450.649 121.829 452.164 123.152 454.127 123.152ZM474.016 104.208H483.488V94.48H490.784V104.208H500.256V110.992H490.784V120.72H483.488V110.992H474.016V104.208Z" fill="white"/>
<path d="M245 78.75C228.872 78.75 215.75 91.8717 215.75 108C215.75 124.128 228.872 137.25 245 137.25C261.128 137.25 274.25 124.128 274.25 108C274.25 91.8717 261.128 78.75 245 78.75ZM255.503 114.303C254.184 115.912 251.791 118.484 246.264 122.235C245.891 122.491 245.45 122.627 244.999 122.627C244.547 122.627 244.106 122.491 243.733 122.235C238.206 118.484 235.813 115.907 234.494 114.303C231.681 110.876 230.334 107.356 230.374 103.545C230.417 99.1772 233.92 95.6236 238.183 95.6236C241.051 95.6236 243.104 97.1184 244.384 98.4937C244.463 98.5772 244.558 98.6436 244.663 98.689C244.769 98.7344 244.882 98.7579 244.997 98.7579C245.112 98.7579 245.226 98.7344 245.331 98.689C245.436 98.6436 245.531 98.5772 245.61 98.4937C246.891 97.1184 248.943 95.6236 251.812 95.6236C256.074 95.6236 259.577 99.1772 259.621 103.545C259.663 107.356 258.314 110.876 255.503 114.303Z" fill="white"/>
<path d="M973.794 0H907L999.374 417H1071L973.794 0Z" fill="white"/>
</g>
<defs>
<radialGradient id="paint0_radial_1_345" cx="0" cy="0" r="1" gradientUnits="userSpaceOnUse" gradientTransform="translate(660.5 209) rotate(90) scale(313.5 993.126)">
<stop stop-color="#404040"/>
<stop offset="1" stop-color="#404040" stop-opacity="0"/>
</radialGradient>
<radialGradient id="paint1_radial_1_345" cx="0" cy="0" r="1" gradientUnits="userSpaceOnUse" gradientTransform="translate(660.5 209) rotate(90) scale(313.5 993.126)">
<stop stop-color="#404040"/>
<stop offset="1" stop-color="#404040" stop-opacity="0"/>
</radialGradient>
<radialGradient id="paint2_radial_1_345" cx="0" cy="0" r="1" gradientUnits="userSpaceOnUse" gradientTransform="translate(660.5 209) rotate(90) scale(313.5 993.126)">
<stop stop-color="#404040"/>
<stop offset="1" stop-color="#404040" stop-opacity="0"/>
</radialGradient>
<radialGradient id="paint3_radial_1_345" cx="0" cy="0" r="1" gradientUnits="userSpaceOnUse" gradientTransform="translate(660.5 209) rotate(90) scale(313.5 993.126)">
<stop stop-color="#404040"/>
<stop offset="1" stop-color="#404040" stop-opacity="0"/>
</radialGradient>
<radialGradient id="paint4_radial_1_345" cx="0" cy="0" r="1" gradientUnits="userSpaceOnUse" gradientTransform="translate(660.5 209) rotate(90) scale(313.5 993.126)">
<stop stop-color="#404040"/>
<stop offset="1" stop-color="#404040" stop-opacity="0"/>
</radialGradient>
<radialGradient id="paint5_radial_1_345" cx="0" cy="0" r="1" gradientUnits="userSpaceOnUse" gradientTransform="translate(660.5 209) rotate(90) scale(313.5 993.126)">
<stop stop-color="#404040"/>
<stop offset="1" stop-color="#404040" stop-opacity="0"/>
</radialGradient>
<radialGradient id="paint6_radial_1_345" cx="0" cy="0" r="1" gradientUnits="userSpaceOnUse" gradientTransform="translate(660.5 209) rotate(90) scale(313.5 993.126)">
<stop stop-color="#404040"/>
<stop offset="1" stop-color="#404040" stop-opacity="0"/>
</radialGradient>
<radialGradient id="paint7_radial_1_345" cx="0" cy="0" r="1" gradientUnits="userSpaceOnUse" gradientTransform="translate(660.5 209) rotate(90) scale(313.5 993.126)">
<stop stop-color="#404040"/>
<stop offset="1" stop-color="#404040" stop-opacity="0"/>
</radialGradient>
<radialGradient id="paint8_radial_1_345" cx="0" cy="0" r="1" gradientUnits="userSpaceOnUse" gradientTransform="translate(660.5 209) rotate(90) scale(313.5 993.126)">
<stop stop-color="#404040"/>
<stop offset="1" stop-color="#404040" stop-opacity="0"/>
</radialGradient>
<radialGradient id="paint9_radial_1_345" cx="0" cy="0" r="1" gradientUnits="userSpaceOnUse" gradientTransform="translate(660.5 209) rotate(90) scale(313.5 993.126)">
<stop stop-color="#404040"/>
<stop offset="1" stop-color="#404040" stop-opacity="0"/>
</radialGradient>
<radialGradient id="paint10_radial_1_345" cx="0" cy="0" r="1" gradientUnits="userSpaceOnUse" gradientTransform="translate(660.5 209) rotate(90) scale(313.5 993.126)">
<stop stop-color="#404040"/>
<stop offset="1" stop-color="#404040" stop-opacity="0"/>
</radialGradient>
<radialGradient id="paint11_radial_1_345" cx="0" cy="0" r="1" gradientUnits="userSpaceOnUse" gradientTransform="translate(660.5 209) rotate(90) scale(313.5 993.126)">
<stop stop-color="#404040"/>
<stop offset="1" stop-color="#404040" stop-opacity="0"/>
</radialGradient>
<clipPath id="clip0_1_345">
<rect width="1320" height="417" fill="white"/>
</clipPath>
</defs>
</svg>
