<svg width="275" height="69" viewBox="0 0 275 69" fill="none" xmlns="http://www.w3.org/2000/svg">
<mask id="mask0_4703_142" style="mask-type:luminance" maskUnits="userSpaceOnUse" x="2" y="8" width="70" height="56">
<path d="M70.3223 8.64L2.79321 9.81873L3.72924 63.4438L71.2584 62.265L70.3223 8.64Z" fill="white"/>
</mask>
<g mask="url(#mask0_4703_142)">
<path fill-rule="evenodd" clip-rule="evenodd" d="M20.9342 56.2373C27.1966 60.5272 34.3861 62.9089 42.007 62.7758C53.34 62.578 63.5307 56.8394 71.0072 47.6518C67.7169 43.8862 63.966 40.7494 59.8725 38.3999L53.4175 41.3554C54.8487 43.2345 55.7026 45.4861 55.745 47.9182C55.8629 54.6741 49.6949 60.2593 41.9655 60.3942C35.9597 60.4991 30.7818 57.2803 28.7157 52.6705L20.9341 56.2343L20.9342 56.2373ZM36.9486 48.9028C37.1201 49.7879 37.6096 50.6053 38.3572 51.2368C39.2839 52.0197 40.5335 52.4464 41.8263 52.4209C44.5169 52.3739 46.6655 50.4293 46.6244 48.0774C46.6043 46.9222 46.06 45.8831 45.1915 45.1289L36.9519 48.9027L36.9486 48.9028Z" fill="white"/>
<path d="M22.5693 48.4019L69.6327 27.6274L58.8814 8.83947L53.7925 25.6968L47.1198 14.0323L42.0276 30.8896L35.3547 19.2251L30.2625 36.0825L23.5897 24.4179L18.4975 41.2753L11.8247 29.6108L3.61326 56.7709L15.3782 51.578L22.5693 48.4048L22.5693 48.4019Z" fill="white"/>
</g>
<path d="M96.7733 51.0681L96.3374 26.0941L102.388 25.9885L102.748 46.5895L114.322 46.3875L114.398 50.7605L96.7733 51.0681Z" fill="white"/>
<path d="M123.483 41.016C123.516 42.9064 123.891 44.3294 124.612 45.2851C125.344 46.2407 126.51 46.7045 128.111 46.6765C129.699 46.6488 130.828 46.1507 131.501 45.182C132.188 44.2017 132.513 42.7608 132.48 40.8589C132.447 38.9685 132.072 37.5569 131.352 36.6239C130.633 35.691 129.473 35.2385 127.872 35.2664C126.285 35.2941 125.149 35.7867 124.463 36.7441C123.775 37.6903 123.45 39.1141 123.483 41.016ZM138.57 40.7526C138.624 43.8615 137.73 46.3092 135.886 48.0958C134.044 49.8822 131.45 50.8046 128.106 50.863C126.011 50.8995 124.156 50.5332 122.542 49.764C120.927 48.9834 119.678 47.849 118.793 46.3607C117.908 44.8725 117.448 43.1262 117.413 41.1219C117.358 38.0017 118.245 35.5597 120.077 33.7962C121.907 32.0328 124.507 31.1217 127.878 31.0629C129.972 31.0263 131.827 31.3926 133.441 32.1619C135.056 32.9311 136.305 34.0541 137.19 35.5309C138.075 37.0077 138.535 38.7483 138.57 40.7526Z" fill="white"/>
<path d="M149.609 50.1458L143.656 50.2497L143.192 23.67L149.145 23.5661L149.609 50.1458Z" fill="white"/>
<path d="M171.059 49.7715L153.825 50.0723L153.771 46.9975L163.671 34.7782L154.165 34.9441L154.096 30.9641L170.374 30.6799L170.433 34.0621L160.801 45.9692L170.99 45.7914L171.059 49.7715Z" fill="white"/>
<path d="M184.518 45.7261C185.56 45.7079 186.805 45.4868 188.255 45.0627L188.323 48.9404C186.85 49.5471 185.034 49.8692 182.873 49.907C180.492 49.9485 178.746 49.455 177.634 48.4263C176.537 47.3862 175.969 45.8126 175.932 43.7059L175.771 34.4986L172.922 34.5483L172.883 32.3447L176.132 30.5452L177.779 26.4838L181.585 26.4174L181.655 30.4829L187.765 30.3763L187.833 34.288L181.724 34.3947L181.884 43.602C181.897 44.3421 182.141 44.8847 182.615 45.2296C183.104 45.5742 183.738 45.7397 184.518 45.7261Z" fill="white"/>
<path d="M201.525 33.4853C200.263 33.5073 199.28 33.8776 198.577 34.5961C197.873 35.3032 197.48 36.3011 197.399 37.5899L205.753 37.444C205.705 36.1576 205.304 35.1735 204.549 34.4918C203.796 33.7988 202.788 33.4632 201.525 33.4853ZM202.645 49.5619C199.132 49.6232 196.372 48.8227 194.364 47.1604C192.357 45.4981 191.326 43.1124 191.272 40.0036C191.216 36.8035 192.083 34.3165 193.874 32.5423C195.679 30.7564 198.195 29.8355 201.421 29.7791C204.505 29.7253 206.92 30.452 208.663 31.9595C210.408 33.4669 211.304 35.5757 211.351 38.2861L211.395 40.8142L197.324 41.0599C197.413 42.5392 197.935 43.6863 198.886 44.5013C199.838 45.3162 201.159 45.709 202.851 45.6795C204.165 45.6565 205.405 45.5153 206.573 45.2557C207.739 44.9961 208.956 44.5933 210.222 44.0471L210.293 48.0785C209.259 48.5522 208.153 48.9075 206.972 49.1446C205.792 49.3931 204.35 49.5321 202.645 49.5619Z" fill="white"/>
<path d="M230.238 48.7384L229.041 46.162L228.885 46.1647C227.902 47.2869 226.881 48.0736 225.822 48.525C224.775 48.9647 223.4 49.1995 221.695 49.2293C219.6 49.2658 217.939 48.7708 216.71 47.7442C215.495 46.7175 214.87 45.236 214.836 43.3001C214.801 41.273 215.581 39.7671 217.178 38.7824C218.788 37.786 221.225 37.208 224.489 37.0485L228.274 36.88L228.259 36.043C228.225 34.107 227.076 33.1588 224.813 33.1983C223.069 33.2287 221.028 33.7257 218.688 34.6893L216.655 31.2048C219.147 30.0107 221.921 29.387 224.98 29.3336C227.907 29.2825 230.162 29.8014 231.742 30.8901C233.323 31.9789 234.133 33.6621 234.173 35.9398L234.395 48.6658L230.238 48.7384ZM228.327 39.9206L226.025 40.0291C224.295 40.1049 223.011 40.4006 222.175 40.9164C221.337 41.4323 220.928 42.2027 220.946 43.2277C220.972 44.6967 221.947 45.4144 223.873 45.3808C225.252 45.3568 226.346 44.9902 227.154 44.2812C227.974 43.572 228.374 42.6423 228.354 41.4921L228.327 39.9206Z" fill="white"/>
<path d="M260.081 48.2176L254.128 48.3215L253.933 37.1669C253.909 35.789 253.625 34.763 253.08 34.089C252.547 33.4034 251.714 33.0705 250.582 33.0903C249.059 33.1169 247.962 33.6258 247.29 34.6172C246.617 35.6086 246.3 37.2261 246.339 39.4695L246.496 48.4547L240.544 48.5586L240.21 29.4609L244.758 29.3815L245.6 31.8103L245.933 31.8045C246.503 30.9173 247.336 30.2193 248.435 29.7103C249.531 29.1899 250.796 28.9173 252.227 28.8923C255.493 28.8353 257.722 29.7305 258.912 31.5779L259.439 31.5687C260.009 30.6702 260.856 29.9662 261.979 29.4568C263.116 28.9471 264.399 28.6798 265.831 28.6548C268.303 28.6117 270.18 29.1371 271.462 30.2311C272.756 31.3134 273.425 33.0789 273.467 35.5273L273.685 47.9801L267.713 48.0844L267.518 36.9297C267.494 35.5519 267.209 34.5259 266.664 33.8519C266.131 33.1663 265.299 32.8334 264.167 32.8532C262.71 32.8786 261.625 33.3532 260.912 34.277C260.212 35.2005 259.88 36.653 259.914 38.6345L260.081 48.2176Z" fill="white"/>
</svg>
