<svg width="309" height="46" viewBox="0 0 309 46" fill="none" xmlns="http://www.w3.org/2000/svg">
<path fill-rule="evenodd" clip-rule="evenodd" d="M172.634 2.757C148.458 6.03236 128.085 20.5768 117.918 41.8209C117.602 42.482 117.386 43.0586 117.438 43.1022C117.491 43.1461 118.522 41.8584 119.73 40.2414C131.124 24.9853 147.34 14.695 165.317 11.3123C170.17 10.3994 173.194 10.0542 173.044 10.4306C172.982 10.5854 171.399 12.6351 169.527 14.9858L166.123 19.2603L158.219 19.4227L150.315 19.5853L147.879 21.9263L145.443 24.2676L153.689 24.1237C158.225 24.0445 161.937 24.0777 161.939 24.1971C161.942 24.3168 160.845 25.7711 159.503 27.4293C158.161 29.0875 157.127 30.5348 157.206 30.6453C157.285 30.756 159.234 30.8135 161.538 30.7733C166.073 30.6941 166.155 30.6701 167.466 29.041C168.407 27.8722 181.083 12.4729 184.583 8.24673C189.538 2.26432 189.441 2.40039 188.888 2.22897C187.971 1.94447 175.688 2.34347 172.634 2.757ZM11.1837 13.2277C7.18281 18.1483 5.07108 20.7372 2.54694 23.8149C1.34882 25.2756 0.370183 26.5553 0.371983 26.6584C0.373783 26.7615 7.02547 26.6737 15.1539 26.4634C30.8477 26.0575 32.0769 25.9446 36.212 24.5308C41.6544 22.6699 46.9972 18.205 46.9759 15.535C46.9579 13.2548 44.572 10.8095 41.5079 9.93081C39.9053 9.47123 38.7087 9.44136 26.906 9.5662L14.0498 9.70239L11.1837 13.2277ZM54.8175 10.8511C55.9597 11.8389 57.901 13.5138 59.1311 14.5728C60.5352 15.7818 61.2563 16.5937 61.068 16.7539C60.7972 16.9842 55.5573 19.2427 43.7328 24.2252L39.5692 25.9799L45.9652 25.9418L52.3613 25.904L58.7047 23.2084C62.1934 21.7262 65.1859 20.5107 65.3547 20.5077C65.5232 20.5048 66.9945 21.7007 68.6238 23.1653L71.5863 25.8282L76.4783 25.7429C79.2757 25.694 81.3236 25.5527 81.2608 25.4129C81.2005 25.2785 79.3068 23.4707 77.053 21.3957C74.7991 19.3206 72.9531 17.5269 72.951 17.4097C72.949 17.2924 74.1837 16.6745 75.6944 16.0365C77.2054 15.3985 81.9026 13.4054 86.1328 11.6075L93.8242 8.33842L87.1309 8.45498L80.438 8.57154L76.724 10.1606C74.6817 11.0346 72.0038 12.1707 70.7737 12.6851L68.5369 13.6208L66.0384 11.2435L63.5398 8.86649L58.1404 8.96074L52.7409 9.05499L54.8175 10.8511ZM97.3081 11.454C95.8238 13.2412 92.6164 17.0898 90.1812 20.0065L85.7531 25.3095L89.524 25.2437L93.2952 25.1779L94.0361 24.2827C98.4336 18.9688 100.515 16.4616 101.936 14.769L103.622 12.7608L114.009 12.658C123.369 12.5652 124.45 12.6003 124.951 13.0159C125.736 13.6662 125.233 14.8005 123.835 15.5364C122.816 16.0726 122.091 16.1336 113.425 16.4111L104.111 16.7094L109.637 20.7528L115.163 24.7962L119.963 24.7124C124 24.6419 124.689 24.5718 124.294 24.2722C124.036 24.0761 122.744 23.1624 121.424 22.2415C120.103 21.321 118.98 20.4841 118.929 20.3824C118.878 20.2804 120.227 20.1027 121.927 19.9872C127.435 19.6128 131.485 17.7692 133.225 14.8439C134.93 11.9776 133.83 9.68234 130.134 8.39795C128.678 7.8921 127.918 7.8747 114.306 8.03547L100.007 8.20416L97.3081 11.454ZM192.722 7.26854C191.645 7.63293 190.303 8.24379 189.742 8.62577C189.18 9.00775 186.805 11.7104 184.464 14.6317C181.31 18.5682 180.212 20.1499 180.222 20.7426C180.24 21.7337 181.728 22.9613 183.381 23.3475C184.152 23.5276 188.951 23.5133 197.662 23.3051C197.662 23.3051 209.075 23.2452 210.781 22.9914C214.17 22.4874 215.745 20.531 217.628 18.1891L218.79 16.7437L214.353 16.8211L209.916 16.8986L209.089 17.8631L208.261 18.8277L200.216 18.9681C192.033 19.111 190.946 19.0097 190.928 18.1028C190.915 17.4574 194.126 13.3077 195.423 12.2945C196.009 11.8366 197.024 11.3243 197.678 11.1563C198.36 10.9812 202.208 10.7919 206.692 10.7128C214.858 10.5686 215.142 10.6077 214.014 11.7156C213.518 12.2032 213.661 12.218 218.054 12.1332C222.393 12.0493 222.631 12.0164 223.09 11.4345C223.355 11.0984 224.034 10.2432 224.598 9.53347C225.389 8.53941 225.574 8.0804 225.404 7.53339C224.958 6.10268 224.341 6.05835 208.84 6.34438C194.837 6.60293 194.66 6.61306 192.722 7.26854ZM228.511 10.9411C226.304 13.7046 223.232 17.5449 221.684 19.4757L218.871 22.9859L236.542 22.6775L254.215 22.369L255.945 20.2349L257.676 18.1009L244.467 18.2633C237.202 18.3527 231.074 18.3701 230.848 18.3018C230.545 18.2102 230.618 17.9602 231.128 17.3468L231.818 16.5163L242.272 16.3324L252.725 16.1486L254.271 14.1636C255.122 13.0718 255.864 12.0821 255.919 11.9644C255.976 11.8467 251.457 11.8301 245.877 11.9274C235.065 12.1162 235.092 12.1195 236.326 10.8047L236.909 10.1837L250.364 9.94888L263.82 9.71401L265.016 8.26796C265.673 7.47249 266.459 6.48177 266.763 6.06575L267.314 5.3096L249.919 5.61323L232.525 5.91685L228.511 10.9411ZM267.844 12.6684C264.437 16.7838 261.255 20.6276 260.771 21.2102L259.893 22.2699L263.657 22.2042L267.421 22.1385L270.961 17.847C272.908 15.4868 275.249 12.6912 276.163 11.6347L277.825 9.71386L288.177 9.61461C298.979 9.51103 299.591 9.56849 299.584 10.6838C299.579 11.4717 298.403 12.4097 296.898 12.8269C295.79 13.1334 293.271 13.2732 286.704 13.3925C278.387 13.5434 278.012 13.5722 278.666 14.0079C279.044 14.2594 281.59 16.1087 284.326 18.1178L289.299 21.771L294.057 21.6127L298.816 21.4547L295.944 19.477C294.364 18.3894 293.07 17.4041 293.068 17.2877C293.066 17.1712 293.954 17.0583 295.04 17.0369C300.88 16.9208 305.809 14.7182 307.52 11.4593C308.919 8.79596 307.839 6.67784 304.446 5.4278C302.824 4.82986 302.716 4.82684 288.426 5.00597L274.039 5.18624L267.844 12.6684ZM35.1718 14.0707C38.2409 14.5677 39.091 15.5795 38.0097 17.4479C37.415 18.4752 35.2379 20.0499 33.2949 20.8586C31.817 21.4737 31.343 21.5124 22.3457 21.7517C17.1731 21.8892 12.9399 21.9235 12.9382 21.8277C12.9365 21.7319 14.3459 19.9279 16.0704 17.8186L19.2056 13.9838L26.2009 13.8674C30.7139 13.7921 33.8971 13.8644 35.1718 14.0707Z" fill="white"/>
</svg>
