<svg width="210" height="57" viewBox="0 0 210 57" fill="none" xmlns="http://www.w3.org/2000/svg">
<path fill-rule="evenodd" clip-rule="evenodd" d="M199.545 0.27498C198.064 4.53366 195.722 8.401 192.093 12.5839C189.399 15.6893 185.801 18.908 181.667 21.9109L181.003 22.3931L180.029 21.8526C175.937 19.5811 171.241 17.6561 166.037 16.1172C165.352 15.9146 164.802 15.7407 164.815 15.7307C164.843 15.708 171.637 13.1766 172.27 12.9523C172.526 12.8618 172.764 12.7629 172.799 12.7322C172.862 12.6769 175.626 4.27329 175.623 4.14412C175.623 4.10701 168.493 4.20115 159.779 4.35324L143.937 4.62978L143.8 5.05772C143.724 5.29313 143.15 7.06308 142.523 8.99102L141.383 12.4964L137.515 12.6159C135.294 12.6846 132.931 12.8028 131.966 12.8935C130.179 13.0615 128.726 13.2341 128.669 13.2853C128.613 13.3353 129.173 13.3863 130.573 13.4591C132.417 13.5549 135.191 13.8131 137.551 14.1088C150.301 15.706 162.608 19.5397 173.805 25.4026L175.135 26.0988L174.617 26.3806C173.805 26.8227 171.179 28.2219 170.718 28.4585C169.591 29.0358 165.094 31.0528 163.573 31.6625C156.651 34.4381 150.294 36.3679 141.714 38.2983C135.582 39.6778 126.353 41.0945 118.725 41.8275C113.223 42.3561 105.606 42.823 101.07 42.9097C100.044 42.9293 99.4432 42.9691 99.5302 43.0114C99.698 43.0929 104.879 43.5076 107.442 43.6443C117.082 44.1592 128.115 43.9818 137.123 43.1671C149.93 42.0089 161.085 39.5969 170.148 36.0263C174.023 34.4998 178.22 32.4005 181.112 30.5415L181.877 30.0501L182.655 30.5491C191.841 36.4374 199.709 43.3837 206.036 51.1922C206.76 52.0851 207.372 52.7977 207.396 52.7759C207.443 52.7333 206.738 51.1027 205.913 49.3454C202.849 42.824 198.77 36.9864 193.82 32.0392C192.609 30.8289 189.888 28.3698 189.245 27.9039C189.041 27.7564 188.446 27.3089 187.922 26.9095L186.97 26.1833L187.291 25.9073C187.868 25.41 189.66 23.5882 190.523 22.6219C194.494 18.1716 197.239 12.9154 198.624 7.10929C199.099 5.11573 199.377 3.31456 199.635 0.557111C199.669 0.193136 199.624 0.049895 199.545 0.27498ZM204.515 3.58001C203.373 3.7721 202.289 4.52897 201.799 5.47625C201.473 6.10494 201.381 7.09958 201.59 7.73824C202.165 9.50118 204.382 10.5315 206.403 9.97465C208.203 9.47894 209.339 7.90832 209.039 6.33042C208.913 5.6677 208.8 5.41597 208.402 4.91484C207.56 3.85367 206.024 3.32614 204.515 3.58001ZM5.55238 7.71401C4.29661 11.5126 0.349557 23.6775 0.350744 23.7455C0.35183 23.8077 1.3821 23.8159 3.83528 23.7731L7.31818 23.7123L10.0251 15.4295C11.5137 10.8741 12.7445 7.09556 12.7601 7.03287C12.7839 6.93681 12.2385 6.92858 9.28153 6.98019L5.7747 7.0414L5.55238 7.71401ZM29.6478 8.83351C29.2457 10.0554 28.793 11.4311 28.6419 11.8907L28.3672 12.7264L20.4555 12.8645L12.5437 13.0026L11.8146 15.1509C11.4137 16.3325 11.0863 17.3413 11.0872 17.3927C11.0884 17.4624 13.0756 17.4514 18.9414 17.349C23.2603 17.2737 26.7945 17.2394 26.7951 17.273C26.7959 17.3182 25.2462 22.0984 24.8791 23.1829C24.8338 23.3171 25.0452 23.3218 28.429 23.2627L32.0272 23.1999L32.1191 22.9349C32.1697 22.7892 32.6682 21.2576 33.2269 19.5314C35.7249 11.8136 37.3909 6.68538 37.4308 6.59082C37.4652 6.5094 36.7377 6.50094 33.9266 6.55001L30.3789 6.61194L29.6478 8.83351ZM40.118 6.54326C39.9898 6.85968 38.833 10.4791 38.8344 10.5594C38.8353 10.6123 41.0661 12.2862 43.7917 14.2792L48.7473 17.903L47.9214 20.3997C47.4673 21.7728 47.0952 22.9238 47.0947 22.9572C47.0942 22.9906 48.6849 22.9902 50.6297 22.9563L54.1655 22.8946L54.9461 20.4695C55.3755 19.1356 55.7941 17.9847 55.8764 17.9117C55.9589 17.8388 59.2583 16.1087 63.2086 14.0671C67.1589 12.0256 70.4037 10.3445 70.4192 10.3314C70.4561 10.3002 71.9468 6.02619 71.9483 5.94713C71.9489 5.91365 70.3539 5.91417 68.4037 5.94821L64.858 6.0101L64.7124 6.47872C64.6323 6.73651 64.4779 7.22247 64.3692 7.55872L64.1717 8.1701L61.9522 9.32249C60.7315 9.95627 59.4407 10.6214 59.0839 10.8005C58.727 10.9795 57.2917 11.7118 55.8944 12.4277L53.3539 13.7293L51.9249 12.6986C51.139 12.1317 49.7847 11.1556 48.9155 10.5295C48.0463 9.90331 47.1352 9.23971 46.891 9.05487L46.4469 8.71869L46.8131 7.60522C47.0146 6.9928 47.1787 6.45284 47.1779 6.40528C47.1756 6.27068 40.1729 6.40759 40.118 6.54326ZM74.0721 6.23429C73.7091 7.26908 68.7789 22.4672 68.7803 22.5473C68.7815 22.6145 69.7311 22.6229 72.2838 22.5783L75.7857 22.5172L75.9553 22.0076C76.0486 21.7274 76.9572 18.9576 77.9743 15.8525L79.8236 10.207L88.6033 10.0538C96.9201 9.90861 97.3806 9.90803 97.3393 10.0431C96.9789 11.22 96.9993 11.1891 96.452 11.3899C96.171 11.4932 94.8753 11.9995 93.5728 12.5152L91.2046 13.4528L85.7874 13.5882L80.3702 13.7235L79.6812 15.7191C79.3022 16.8166 78.9695 17.7982 78.9419 17.9003L78.8917 18.0859L85.6259 17.9683L92.3601 17.8508L94.7039 16.9506C95.9929 16.4555 97.9255 15.714 98.9984 15.3029C102.065 14.1277 102.988 13.7643 103.055 13.7054C103.109 13.658 105.703 6.03745 105.85 5.49472L105.904 5.29364L90.0561 5.57027L74.2081 5.84689L74.0721 6.23429ZM109.129 5.29815C109.108 5.33199 108.6 6.78943 108 8.53696C107.4 10.2845 106.893 11.7532 106.873 11.8007C106.853 11.8482 107.577 12.2369 108.482 12.6645C109.386 13.0921 110.11 13.4661 110.09 13.4957C110.069 13.5253 109.093 13.9083 107.921 14.3468L105.789 15.1441L105.593 15.7555C105.264 16.776 103.669 21.6744 103.605 21.8598L103.545 22.0331L119.417 21.7356L135.29 21.438L135.979 19.4401C136.358 18.3412 136.692 17.3415 136.721 17.2186L136.775 16.9951L124.875 17.1822L112.976 17.3693L114.18 16.9093C114.841 16.6563 115.947 16.2312 116.637 15.9648C117.327 15.6984 119.061 15.0328 120.492 14.4858C121.922 13.9388 123.126 13.4625 123.167 13.4271C123.208 13.3919 121.411 12.5235 119.173 11.4974L115.104 9.63174L127.233 9.3795L139.362 9.12726L140.055 7.08872C140.437 5.96752 140.772 4.96767 140.799 4.86692L140.85 4.68366L125.008 4.96017C116.295 5.11226 109.15 5.2643 109.129 5.29815ZM206.364 4.28284C207.106 4.50933 207.892 5.16701 208.179 5.80194C208.753 7.06931 208.125 8.52204 206.713 9.19467C206.305 9.38861 206.136 9.41848 205.359 9.4331C204.595 9.44749 204.406 9.42265 204.008 9.25525C201.429 8.17137 201.693 4.99158 204.426 4.21712C204.901 4.08263 205.808 4.1134 206.364 4.28284ZM203.817 6.8177L203.85 8.69061L204.177 8.6849L204.504 8.67919L204.489 7.82834L204.474 6.9775L204.888 6.97028L205.301 6.96307L205.908 7.8018C206.506 8.62989 206.518 8.64046 206.87 8.63611C207.13 8.63287 207.207 8.60461 207.155 8.53159C207.116 8.47658 206.834 8.11813 206.528 7.73504C206.222 7.35204 205.971 7.01897 205.971 6.99499C205.97 6.971 206.056 6.94989 206.162 6.94805C206.432 6.94333 206.864 6.7261 207.032 6.50998C207.114 6.40528 207.172 6.15891 207.168 5.93445C207.154 5.11691 206.841 4.97095 205.07 4.95574L203.784 4.94471L203.817 6.8177ZM206.412 5.48464C206.676 5.70538 206.664 6.0894 206.384 6.33988C206.176 6.52703 206.089 6.54403 205.266 6.55839L204.374 6.57397L204.363 5.96622L204.353 5.35848L205.287 5.34216C206.098 5.32802 206.248 5.34704 206.412 5.48464ZM167.093 8.78506C167.089 8.84089 166.979 9.1749 166.849 9.52735L166.611 10.1682L166.054 10.3805C165.747 10.4973 164.522 10.9708 163.332 11.4327L161.167 12.2727L154.783 12.3841L148.399 12.4955L148.981 10.7426L149.563 8.98973L158.331 8.83668C165.288 8.71525 167.098 8.70456 167.093 8.78506ZM139.42 18.4778C138.923 19.9942 138.518 21.277 138.519 21.3286C138.52 21.3977 139.435 21.4062 142.019 21.3611L145.517 21.3L145.608 21.035C145.658 20.8893 145.964 19.9692 146.287 18.9906C146.61 18.0119 146.895 17.1622 146.92 17.1024C146.994 16.9273 145.678 16.6503 140.518 15.7544C140.337 15.723 140.258 15.9196 139.42 18.4778Z" fill="white"/>
<path fill-rule="evenodd" clip-rule="evenodd" d="M199.546 0.275016C198.064 4.53369 195.723 8.40104 192.093 12.584C189.399 15.6893 185.801 18.908 181.667 21.9109L181.003 22.3931L180.03 21.8526C171.649 17.2004 161.318 14.2163 149.549 13.048C143.081 12.406 134.988 12.4483 129.495 13.1528C129.06 13.2087 128.688 13.2682 128.669 13.2853C128.614 13.3354 129.173 13.3863 130.573 13.4591C132.418 13.5549 135.191 13.8132 137.551 14.1088C150.302 15.706 162.608 19.5397 173.805 25.4026L175.135 26.0988L174.617 26.3806C173.805 26.8227 171.179 28.2219 170.718 28.4585C169.591 29.0358 165.094 31.0528 163.573 31.6625C156.651 34.4381 150.294 36.3679 141.714 38.2984C135.582 39.6778 126.354 41.0946 118.725 41.8276C113.223 42.3561 105.606 42.823 101.07 42.9097C100.045 42.9293 99.4434 42.9691 99.5305 43.0114C99.6983 43.093 104.88 43.5076 107.442 43.6444C117.083 44.1592 128.115 43.9818 137.123 43.1671C149.93 42.0089 161.085 39.597 170.149 36.0263C174.024 34.4998 178.22 32.4005 181.112 30.5416L181.877 30.0501L182.656 30.5492C191.841 36.4374 199.709 43.3838 206.036 51.1922C206.76 52.0851 207.372 52.7978 207.396 52.7759C207.444 52.7333 206.739 51.1027 205.913 49.3455C202.849 42.824 198.77 36.9864 193.821 32.0392C192.61 30.8289 189.889 28.3699 189.245 27.9039C189.041 27.7565 188.446 27.309 187.922 26.9095L186.971 26.1833L187.291 25.9073C187.869 25.41 189.661 23.5882 190.523 22.622C194.494 18.1717 197.239 12.9155 198.624 7.10933C199.1 5.11577 199.378 3.3146 199.635 0.557147C199.669 0.193173 199.624 0.0499312 199.546 0.275016ZM204.515 3.58004C203.373 3.77214 202.289 4.52901 201.799 5.47629C201.473 6.10498 201.382 7.09961 201.59 7.73828C202.165 9.50121 204.382 10.5315 206.404 9.97468C208.203 9.47898 209.339 7.90836 209.04 6.33045C208.914 5.66774 208.8 5.41601 208.403 4.91488C207.56 3.85371 206.024 3.32617 204.515 3.58004ZM206.364 4.28288C207.106 4.50937 207.892 5.16704 208.179 5.80198C208.753 7.06935 208.125 8.52208 206.713 9.1947C206.306 9.38865 206.136 9.41852 205.359 9.43313C204.595 9.44752 204.406 9.42269 204.008 9.25529C201.43 8.17141 201.694 4.99162 204.427 4.21716C204.901 4.08266 205.809 4.11343 206.364 4.28288ZM203.817 6.81774L203.85 8.69065L204.177 8.68493L204.504 8.67922L204.49 7.82838L204.475 6.97754L204.888 6.97032L205.302 6.9631L205.908 7.80184C206.507 8.62993 206.519 8.6405 206.87 8.63614C207.13 8.63291 207.207 8.60465 207.156 8.53162C207.117 8.47662 206.835 8.11816 206.528 7.73508C206.222 7.35207 205.972 7.01901 205.971 6.99502C205.971 6.97104 206.057 6.94992 206.162 6.94808C206.432 6.94336 206.864 6.72613 207.032 6.51001C207.114 6.40532 207.172 6.15895 207.168 5.93448C207.154 5.11695 206.841 4.97099 205.071 4.95577L203.785 4.94474L203.817 6.81774ZM206.412 5.48468C206.676 5.70541 206.664 6.08944 206.385 6.33991C206.176 6.52706 206.089 6.54407 205.266 6.55843L204.374 6.574L204.364 5.96626L204.353 5.35851L205.288 5.3422C206.098 5.32805 206.248 5.34708 206.412 5.48468Z" fill="white"/>
<path fill-rule="evenodd" clip-rule="evenodd" d="M199.55 0.263329C199.053 1.65727 198.691 2.5609 198.317 3.33949C196.705 6.69942 194.477 9.93304 191.41 13.3629C189.122 15.921 185.182 19.379 181.667 21.9145L181.002 22.3934L180.169 21.9271C178.755 21.1354 176.116 19.8488 174.388 19.1082C167.119 15.9926 158.824 13.9687 149.549 13.048C143.081 12.406 134.988 12.4483 129.495 13.1528C129.06 13.2086 128.688 13.2682 128.669 13.2853C128.614 13.3346 129.165 13.3852 130.526 13.4561C137.4 13.8142 145.45 15.1344 152.424 17.0473C160.346 19.2204 167.321 21.9599 174.186 25.5948L175.142 26.1008L174.898 26.2324C171.036 28.3213 170.736 28.4728 167.889 29.7836C160.085 33.3748 152.144 35.9582 141.714 38.2984C135.508 39.6908 126.379 41.0921 118.725 41.8276C113.193 42.359 105.63 42.8226 101.07 42.9097C100.044 42.9293 99.443 42.9691 99.5301 43.0114C99.6979 43.093 104.879 43.5076 107.441 43.6444C117.082 44.1592 128.115 43.9818 137.123 43.1671C155.419 41.5124 170.009 37.3774 180.609 30.8423L181.888 30.0534L182.85 30.6677C191.732 36.3402 199.763 43.4494 206.036 51.1922C206.76 52.0851 207.371 52.7978 207.396 52.7759C207.453 52.7244 206.625 50.8448 205.672 48.8633C202.609 42.4982 198.761 37.011 194.01 32.2341C191.936 30.1482 190.179 28.6251 187.457 26.5515L186.971 26.1811L187.245 25.9476C187.801 25.4746 189.638 23.6107 190.49 22.6571C195.742 16.7738 198.8 9.61189 199.551 1.42996C199.654 0.309167 199.654 -0.0286721 199.55 0.263329Z" fill="white"/>
</svg>
