<svg width="165" height="51" viewBox="0 0 165 51" fill="none" xmlns="http://www.w3.org/2000/svg">
<path fill-rule="evenodd" clip-rule="evenodd" d="M3.68177 13.6992C1.91791 19.7206 0.434862 24.746 0.3863 24.8668C0.315968 25.042 3.49274 25.0216 16.1365 24.7654L31.9749 24.4445L32.8374 21.523L33.6999 18.6016L38.7289 18.5096C41.4947 18.4589 44.1445 18.3336 44.6172 18.2307C46.0965 17.9094 47.3164 17.2864 48.466 16.2655C49.7669 15.1099 50.201 14.3057 51.1153 11.357C51.6496 9.63313 51.7897 8.84656 51.7839 7.60308C51.7769 6.15712 51.721 5.93703 51.0952 4.88309C50.3409 3.61276 49.6061 3.05472 47.9656 2.50641L46.8919 2.14758L26.8905 2.44934L6.88918 2.75109L3.68177 13.6992ZM57.1733 5.05341C54.4588 9.43712 46.211 22.6395 45.6148 23.5557L45.1291 24.3016L49.2193 24.2302L53.3097 24.1588L54.3846 22.3615L55.4597 20.5642L60.0307 20.4378L64.6016 20.3113L64.6335 22.136L64.6653 23.9606L68.183 23.8992L71.7007 23.8378L71.5069 12.7362L71.3131 1.63455L65.2327 1.74606L59.1522 1.85758L57.1733 5.05341ZM76.0659 12.2577C74.3131 18.1861 72.8295 23.2131 72.7689 23.4288L72.6589 23.8211L76.2861 23.7578L79.9136 23.6945L80.1998 22.7785C80.3571 22.2747 80.7682 20.8988 81.1132 19.7208L81.7403 17.5793L84.0391 17.5876L86.3381 17.596L87.3936 20.5708L88.4493 23.5455L92.1356 23.4811C94.8595 23.4336 95.821 23.3627 95.8183 23.2095C95.815 23.0175 94.0026 17.6099 93.7847 17.1424C93.7288 17.0223 93.9889 16.8337 94.3967 16.6985C95.3219 16.392 97.3072 14.74 97.9717 13.7238C98.7286 12.5661 99.8055 8.49637 99.8099 6.7764C99.8167 4.19454 98.5822 2.50627 96.094 1.69392C94.9636 1.32497 94.7304 1.31724 87.0931 1.39711L79.2528 1.47896L76.0659 12.2577ZM101.374 12.0004C99.6104 18.0183 98.1269 23.0422 98.0772 23.1645C98.0055 23.3407 98.7561 23.3637 101.677 23.2752L105.368 23.1634L108.635 12.0881C110.431 5.99673 111.904 0.993353 111.909 0.969327C111.914 0.945302 110.267 0.955658 108.249 0.992265L104.58 1.05873L101.374 12.0004ZM43.9572 10.4408L43.27 12.882L39.3191 12.951L35.368 13.02L36.0549 10.5793L36.7418 8.13858L40.6933 8.06908L44.6445 7.99959L43.9572 10.4408ZM92.5296 7.38065C92.5335 7.49996 92.2587 8.59774 91.9187 9.82036L91.3004 12.0433L87.3459 12.1125L83.3914 12.1817L84.0593 9.87097C84.4266 8.59997 84.7677 7.50104 84.8173 7.42851C84.8669 7.35598 86.6207 7.2669 88.7148 7.23034C91.6249 7.17955 92.5239 7.21504 92.5296 7.38065ZM64.399 11.342L64.4059 14.8556L61.6425 14.934C60.1228 14.9772 58.8784 14.9717 58.8776 14.9217C58.8767 14.8717 59.8191 13.2605 60.972 11.3413C63.0435 7.89238 63.0758 7.85139 63.7301 7.83997L64.392 7.82842L64.399 11.342ZM20.6111 28.0264L20.0396 28.1231L16.8447 38.9369C15.0876 44.8844 13.6495 49.8483 13.6494 49.9675C13.649 50.1392 16.9144 50.1274 29.3181 49.9109L44.9875 49.6374L45.3416 48.5468C45.5364 47.947 46.3305 45.2402 47.106 42.5318C47.8817 39.8235 48.5618 37.6057 48.6177 37.6035C48.6735 37.6015 49.2886 39.0539 49.9848 40.831L51.2502 44.0624L53.6595 44.0637L56.0686 44.0648L59.3057 40.4514C61.0863 38.464 62.5661 36.8374 62.5945 36.8369C62.6228 36.8365 62.5554 37.1305 62.4448 37.4902C62.3341 37.8501 61.4973 40.6561 60.5852 43.7259L58.9268 49.3074L62.5485 49.2915C64.5405 49.2828 66.193 49.2539 66.2207 49.2274C66.285 49.1661 72.5249 27.8369 72.6037 27.4095C72.659 27.1097 72.3996 27.0962 67.9632 27.169L63.2641 27.2461L59.3069 31.6724C57.1303 34.1068 55.2839 36.0406 55.2036 35.9696C55.1234 35.8987 54.3232 33.9795 53.4253 31.7048C52.5276 29.43 51.7723 27.5453 51.747 27.5164C51.6676 27.4258 21.2122 27.9246 20.6111 28.0264ZM78.4828 31.5277C69.202 46.3963 67.5172 49.1085 67.5183 49.1763C67.5191 49.2176 69.3461 49.1984 71.5786 49.1335L75.6374 49.0157L76.7027 47.2185L77.7678 45.4214L82.3609 45.3412L86.9539 45.2611L86.9857 47.0824L87.0175 48.9038L90.5352 48.8424L94.0529 48.781L93.8606 37.7661C93.7089 29.0747 93.6153 26.7502 93.4169 26.7464C93.2787 26.7438 90.5147 26.7726 87.2749 26.8102L81.3843 26.8788L78.4828 31.5277ZM97.4685 26.6888C97.0822 26.7745 96.9193 27.1414 96.2273 29.4868C95.7893 30.9714 95.37 32.3613 95.2953 32.5753L95.1598 32.9644L99.1607 32.9416L103.161 32.9188L101.32 39.1975C100.308 42.6508 99.2625 46.2024 98.9973 47.0897L98.5151 48.7031L102.176 48.6392L105.837 48.5753L107.993 41.2066C109.178 37.1538 110.222 33.5847 110.313 33.2751L110.478 32.7125L113.931 32.6047L117.384 32.497L118.191 29.7935C118.635 28.3065 119.045 26.8938 119.102 26.6543L119.205 26.2187L108.559 26.4045C102.704 26.5067 97.7133 26.6346 97.4685 26.6888ZM125.044 26.3135C122.75 26.7587 120.844 28.1548 119.744 30.1953C119.381 30.8669 119.087 31.5137 119.089 31.6323C119.091 31.7511 118.488 33.872 117.748 36.3455C116.288 41.2347 116.077 42.3707 116.326 44.0028C116.609 45.855 117.699 47.0853 119.753 47.8722C120.642 48.2126 120.965 48.2243 126.703 48.1241L132.721 48.0193L133.628 44.9669C134.127 43.2881 134.538 41.8949 134.541 41.8711C134.545 41.8472 132.106 41.8702 129.121 41.9223C124.083 42.0102 123.693 41.9952 123.695 41.7134C123.695 41.5463 124.276 39.4085 124.986 36.9625L126.277 32.5153L131.83 32.3722L137.383 32.2292L137.594 31.4908C137.709 31.0847 138.09 29.8105 138.438 28.6592C138.788 27.5079 139.101 26.4346 139.135 26.2739C139.192 26.0065 138.651 25.9861 132.719 26.0317C128.152 26.0667 125.887 26.1499 125.044 26.3135ZM145.111 25.8137L141.579 25.9227L138.391 36.7738C136.637 42.742 135.161 47.724 135.109 47.8454C135.036 48.0181 135.818 48.052 138.706 48.0014L142.396 47.9366L143.533 44.013L144.67 40.0893L148.855 40.0162C152.747 39.9483 153.034 39.9646 152.942 40.2485C152.888 40.4165 152.41 42.045 151.878 43.8675C151.347 45.69 150.867 47.3205 150.81 47.4906C150.714 47.7802 150.945 47.7928 154.386 47.6885L158.065 47.5769L161.246 36.7634C162.995 30.816 164.425 25.8328 164.424 25.6896C164.423 25.4669 163.913 25.4426 160.887 25.5218C158.942 25.5726 157.321 25.6403 157.285 25.6723C157.25 25.7043 156.714 27.4568 156.095 29.5667L154.97 33.4026L150.82 33.5219C148.538 33.5876 146.67 33.5811 146.67 33.5076C146.67 33.4342 147.169 31.6645 147.778 29.5751C148.388 27.4857 148.832 25.7602 148.765 25.7405C148.698 25.7209 147.054 25.7539 145.111 25.8137ZM86.7527 36.3719L86.8683 39.8836L84.0502 39.9328C82.5 39.9598 81.2309 39.9339 81.2299 39.8753C81.2289 39.8165 82.1611 38.1952 83.3014 36.2725C85.364 32.7948 85.3782 32.7767 86.0059 32.8183L86.6369 32.8602L86.7527 36.3719Z" fill="white"/>
</svg>
