<svg width="235" height="29" viewBox="0 0 235 29" fill="none" xmlns="http://www.w3.org/2000/svg">
<path fill-rule="evenodd" clip-rule="evenodd" d="M140.157 2.17319C135.67 3.52548 132.605 7.0828 131.934 11.716C131.254 16.4096 133.123 21.6048 136.227 23.6456C138.58 25.1931 140.518 25.6532 144.522 25.615C148.509 25.5768 152.762 24.5746 153.962 23.3905C154.634 22.7282 154.624 22.6793 153.427 20.6687C152.09 18.4221 151.687 18.2699 149.391 19.1426C145.311 20.6934 141.644 19.9434 140.422 17.3076C139.467 15.2491 139.476 12.0491 140.442 10.1064C141.712 7.55522 144.227 6.70407 148.107 7.51343C151.123 8.14309 150.987 8.2121 152.372 5.34015C153.327 3.35854 153.083 2.97231 150.397 2.21324C147.345 1.35099 142.942 1.33367 140.157 2.17319ZM0.255721 4.50978C0.121465 4.62937 0.0314271 5.85622 0.0555134 7.23613L0.099298 9.74454L3.62162 9.68306L7.14393 9.62158L7.39784 18.5064L7.65175 27.3913L11.3657 27.3265L15.0797 27.2616L15.0233 18.3733L14.967 9.48503L18.4459 9.4243C21.7398 9.36681 21.9363 9.32494 22.1365 8.63913C22.4082 7.70766 22.3706 5.55759 22.0666 4.63616L21.8301 3.91954L11.1647 4.1057C5.29889 4.20809 0.389601 4.38988 0.255721 4.50978ZM25.5234 4.05752C25.3822 4.18364 25.3392 8.44644 25.428 13.5305C25.6694 27.3632 25.6494 27.3421 38.2935 26.9497L45.1627 26.7365L45.118 24.1746L45.0733 21.6127L39.4455 21.6226C35.3705 21.6299 33.7046 21.519 33.4078 21.2212C33.1419 20.9545 32.911 17.8356 32.751 12.3517L32.5042 3.89339L29.1422 3.86078C27.2929 3.84277 25.6643 3.93142 25.5234 4.05752ZM54.6066 3.75905C53.6254 4.20415 53.3997 4.72062 50.2022 13.8352C49.3316 16.317 48.0462 19.98 47.3454 21.9751C45.5207 27.1727 45.3884 26.8928 49.6301 26.8187C53.5862 26.7497 53.4179 26.8554 54.2173 23.9357L54.592 22.5678L58.27 22.5036C60.2926 22.4683 62.0419 22.5665 62.1575 22.7221C62.2732 22.8774 62.6098 23.7726 62.9059 24.7111L63.4443 26.4174L67.2111 26.443C71.6192 26.4727 71.4985 26.6244 70.0329 22.8998C69.5248 21.6088 68.0229 17.7606 66.6954 14.3481C63.0053 4.86272 62.6246 4.05892 61.6192 3.63024C60.4593 3.13571 55.7913 3.22135 54.6066 3.75905ZM74.0663 3.46103C73.9599 3.7121 73.993 7.71187 74.1404 12.349C74.3905 20.2281 74.4632 20.879 75.2478 22.2851C77.2539 25.8772 81.2912 27.1412 89.3333 26.6946C94.0135 26.4348 97.1709 26.5578 97.1292 24.1711C97.0751 21.0722 97.2317 20.997 97.0276 13.178L96.7557 2.77188L93.2274 2.83346L89.6992 2.89505L89.7583 11.9435L89.8178 20.9919L87.2054 21.0375C84.0756 21.0921 82.6317 20.5699 82.0359 19.1676C81.7682 18.537 81.5564 15.2826 81.4733 10.5188L81.34 2.88079L77.8002 2.94258C75.0905 2.98988 74.2147 3.11151 74.0663 3.46103ZM103.371 2.82009C102.851 3.01079 102.488 3.49763 102.359 4.17869C102.248 4.76268 102.285 9.85085 102.443 15.486L102.729 25.7317L106.352 25.7601L109.974 25.7885L109.867 19.6239C109.774 14.3009 109.832 13.5218 110.293 13.919C110.587 14.1717 112.57 16.5826 114.701 19.2762C119.926 25.8823 119.56 25.5981 122.781 25.5419C127.186 25.465 126.889 26.3953 126.662 13.4074L126.467 2.25326L122.753 2.31808L119.039 2.38291L118.959 8.42679L118.879 14.4707L114.419 8.79946C111.554 5.15538 109.618 3.00096 109.002 2.77145C107.893 2.35772 104.552 2.38656 103.371 2.82009ZM158.312 1.80377C157.948 2.01095 157.912 4.55057 158.143 13.414L158.438 24.7593L162.051 24.7879L165.663 24.8164L165.686 20.2397L165.71 15.663L169.795 15.5917L173.881 15.5204L174.145 20.0005L174.408 24.4805L178.036 24.5088L181.663 24.5375L181.363 12.9187L181.063 1.30029L177.534 1.36188L174.006 1.42347L173.977 5.67867L173.947 9.93419L169.778 9.9163L165.609 9.89874L165.432 5.6574L165.254 1.41607L162.015 1.47741C160.233 1.51139 158.567 1.65804 158.312 1.80377ZM191.898 1.33924C190.045 1.80147 188.11 3.55865 187.622 5.22233C187.375 6.06464 187.322 9.13054 187.475 13.6359C187.754 21.8143 187.956 22.3973 190.934 23.6376C192.537 24.3051 192.941 24.3259 200.222 24.1161L207.834 23.8971L207.903 21.5216C207.952 19.8377 207.83 19.072 207.486 18.8909C207.218 18.7508 204.456 18.6782 201.348 18.7296C194.922 18.8363 194.781 18.7802 194.954 16.1815L195.045 14.8306L200.537 14.646L206.028 14.4614L205.877 11.9901L205.726 9.51884L200.246 9.52575L194.766 9.53299L194.747 8.43874C194.715 6.59481 195.535 6.3332 201.679 6.22595L206.997 6.13313L206.843 3.49306L206.689 0.852986L200.003 0.919077C196.326 0.955716 192.678 1.14463 191.898 1.33924ZM212.082 1.23934C211.379 1.86762 211.358 2.31966 211.544 12.941L211.737 23.9892L215.45 23.9243L219.164 23.8595L219.086 19.3762L219.008 14.8929L220.772 14.8669C221.742 14.8525 222.954 15.0146 223.465 15.227C224.39 15.6113 224.7 16.3228 226.573 22.3688L226.992 23.7229L230.692 23.6583C235.082 23.5816 234.921 23.8728 233.354 18.8388C232.131 14.9133 231.462 13.5312 230.591 13.1287C229.984 12.8481 230.008 12.751 230.895 11.9045C233.333 9.57607 233.815 6.57573 232.176 3.935C230.319 0.944077 227.962 0.333986 218.849 0.485681C213.305 0.577651 212.754 0.639157 212.082 1.23934ZM224.732 6.52831C225.372 7.06137 225.32 8.55825 224.64 9.16594C224.228 9.53384 223.336 9.69195 221.492 9.72414L218.919 9.76906L218.888 8.00775L218.857 6.24645L221.568 6.19912C223.182 6.17096 224.463 6.30428 224.732 6.52831ZM59.3875 13.9494C59.7407 15.3274 60.0316 16.5838 60.0344 16.741C60.0371 16.8983 59.2267 17.0412 58.2336 17.0585L56.4275 17.09L57.0646 14.5963C58.177 10.2402 58.0953 10.4559 58.4361 10.9731C58.6063 11.2318 59.0347 12.5714 59.3875 13.9494Z" fill="white"/>
</svg>
